<?xml version="1.0" standalone="no"?>
<!DOCTYPE svg PUBLIC "-//W3C//DTD SVG 20010904//EN"
 "http://www.w3.org/TR/2001/REC-SVG-20010904/DTD/svg10.dtd">
<svg version="1.0" xmlns="http://www.w3.org/2000/svg"
 width="1455.000000pt" height="1455.000000pt" viewBox="0 0 1455.000000 1455.000000"
 preserveAspectRatio="xMidYMid meet">
<metadata>
Created by potrace 1.14, written by Peter Selinger 2001-2017
</metadata>
<g transform="translate(0.000000,1455.000000) scale(0.100000,-0.100000)"
fill="#000000" stroke="none">
<path d="M1234 9225 c-8 -47 -18 -51 -59 -25 -40 25 -44 18 -15 -25 11 -16 20
-33 20 -36 0 -3 -19 -12 -42 -19 l-43 -13 37 -11 c50 -15 52 -18 27 -60 -24
-41 -19 -44 27 -16 35 22 38 21 49 -27 9 -45 22 -41 30 7 4 22 10 40 13 40 4
0 21 -9 37 -20 43 -29 50 -25 25 16 -12 19 -20 37 -18 39 3 3 22 11 44 19 l39
13 -42 13 c-24 7 -43 15 -43 17 0 2 7 18 16 34 19 38 12 47 -20 25 -36 -23
-44 -20 -52 19 -9 48 -22 53 -30 10z"/>
<path d="M2685 7325 c0 -1067 1 -1502 2 -967 2 536 2 1409 0 1940 -1 532 -2
94 -2 -973z"/>
<path d="M910 9189 c-40 -9 -60 -32 -60 -70 0 -32 27 -55 83 -70 68 -18 74
-89 7 -89 -15 0 -33 7 -40 15 -18 22 -33 19 -20 -4 14 -26 13 -31 -6 -31 -9 0
-54 37 -100 82 -50 49 -88 78 -93 72 -5 -5 -2 -59 6 -123 10 -86 11 -117 2
-127 -15 -19 -5 -18 34 3 24 13 28 18 15 21 -11 2 -20 17 -24 39 -7 37 0 48
44 59 28 8 65 -23 59 -48 -7 -23 10 -23 51 2 18 11 45 20 61 20 41 0 81 35 81
71 0 37 -28 65 -78 79 -47 12 -66 32 -57 58 7 26 39 34 62 16 32 -24 45 -13
21 18 -10 11 -22 13 -48 7z m-170 -209 c-28 -18 -38 -10 -42 30 l-4 40 31 -30
c25 -26 28 -32 15 -40z"/>
<path d="M1523 9095 c-37 -52 -77 -98 -88 -102 -19 -6 -18 -7 5 -14 40 -11 50
-10 44 5 -8 21 25 66 48 66 38 0 58 -19 58 -55 0 -18 -6 -35 -12 -38 -20 -7
-7 -14 37 -23 36 -6 38 -6 23 9 -11 12 -17 46 -23 131 -4 64 -11 116 -15 116
-5 0 -39 -43 -77 -95z m54 -31 c-2 -3 -14 -1 -25 3 l-21 8 22 35 22 35 3 -39
c2 -21 1 -40 -1 -42z"/>
<path d="M1713 9128 c-17 -19 -17 -19 9 -13 15 4 37 1 51 -7 l25 -13 -46 -90
c-34 -64 -52 -90 -64 -89 -29 3 -21 -11 17 -29 45 -21 62 -22 46 -3 -10 11 -3
33 34 105 l45 91 30 -15 c20 -10 30 -23 30 -38 0 -22 0 -22 19 3 l19 24 -31
11 c-18 6 -62 27 -99 47 -66 35 -68 35 -85 16z"/>
<path d="M550 9031 c0 -8 -108 -97 -141 -116 -15 -9 -16 -13 -4 -35 13 -23 14
-23 15 -4 0 11 11 31 25 44 l26 24 24 -29 c95 -115 108 -135 95 -150 -19 -23
-2 -18 36 11 37 29 44 45 16 37 -13 -3 -35 17 -80 73 l-63 78 23 18 c14 11 32
16 46 13 25 -6 27 2 8 28 -14 18 -26 22 -26 8z"/>
<path d="M1983 8997 c7 -17 -16 -50 -87 -124 -22 -24 -46 -43 -54 -43 -18 0
-8 -15 29 -41 l30 -21 -6 24 c-5 17 1 30 24 52 l30 28 28 -20 c15 -11 36 -29
47 -41 18 -20 18 -21 -8 -56 -22 -28 -32 -34 -49 -29 l-22 7 20 -23 c28 -31
57 -46 53 -26 -4 22 120 166 137 159 26 -9 16 12 -15 35 -34 26 -41 27 -34 7
6 -14 -30 -75 -44 -75 -4 0 -29 19 -55 41 l-48 42 27 28 c15 15 36 29 47 31
18 3 15 7 -18 32 -26 20 -36 24 -32 13z"/>
<path d="M1090 8889 c-209 -37 -436 -173 -559 -336 -67 -88 -136 -227 -162
-328 -31 -114 -31 -326 -2 -445 44 -174 125 -312 257 -437 243 -231 574 -314
891 -223 319 91 580 371 641 687 20 105 18 269 -5 379 -22 105 -80 237 -145
327 -50 71 -159 178 -228 226 -74 49 -205 109 -293 132 -92 24 -307 34 -395
18z m-110 -139 c11 -11 20 -26 20 -34 0 -19 -47 -56 -71 -56 -24 0 -24 -2 7
-53 31 -48 41 -56 109 -79 66 -23 95 -23 95 0 0 10 5 23 12 30 9 9 9 12 -2 12
-11 1 -10 5 5 18 11 9 28 30 39 46 15 23 16 30 5 37 -10 6 -6 8 11 7 22 -3 25
0 22 30 -2 27 1 32 19 32 32 0 89 -39 100 -68 11 -27 3 -65 -12 -57 -5 4 0
-10 12 -29 17 -29 18 -35 5 -30 -10 4 -16 1 -16 -7 0 -30 17 -41 56 -38 86 7
153 46 177 100 21 49 22 46 -13 54 -49 11 -63 52 -30 85 25 25 96 27 129 4 30
-21 51 -73 50 -121 0 -21 -3 -33 -5 -27 -3 6 -41 -8 -97 -37 -51 -26 -130 -58
-177 -71 -47 -13 -75 -24 -64 -26 35 -5 187 40 316 93 14 6 17 -3 20 -69 4
-95 -21 -105 -49 -21 l-11 30 -11 -28 c-17 -44 -14 -137 6 -159 14 -15 14 -18
1 -18 -26 0 -48 35 -62 101 -12 58 -14 62 -23 39 -17 -43 -24 -139 -13 -181 8
-29 16 -39 31 -39 12 0 19 -5 16 -12 -2 -7 -15 -12 -28 -10 -26 3 -52 29 -42
45 3 5 1 12 -5 16 -13 8 -20 39 -22 91 -1 31 -2 33 -14 18 -17 -23 -26 -23
-26 1 0 11 -4 23 -10 26 -5 3 -10 -2 -10 -11 0 -16 -2 -16 -20 1 -27 24 -33
16 -15 -19 19 -36 19 -36 -5 -36 -11 0 -20 -4 -20 -8 0 -5 -7 -9 -15 -9 -8 0
-15 6 -15 14 0 7 -4 13 -10 13 -5 0 -10 9 -10 20 0 11 -4 20 -9 20 -29 0 -41
-152 -16 -201 16 -29 70 -59 108 -59 27 0 52 23 42 40 -3 6 3 10 15 10 27 0
37 -27 17 -47 -11 -11 -34 -15 -83 -14 l-69 0 34 -28 c23 -19 30 -30 22 -35
-7 -5 -26 8 -48 31 -32 34 -35 35 -29 13 11 -40 12 -49 1 -50 -5 -1 -14 15
-18 34 -12 48 -29 46 -25 -4 2 -21 -1 -40 -7 -42 -5 -2 -11 16 -13 40 -3 47
-22 48 -22 2 0 -30 -13 -45 -30 -35 -6 4 -4 17 5 35 24 46 18 47 -24 6 -23
-22 -41 -33 -45 -27 -4 5 7 20 24 32 41 31 38 39 -12 27 -76 -17 -148 11 -118
47 17 20 41 20 33 -1 -8 -20 13 -34 54 -34 72 0 119 52 110 121 -3 21 -1 42 4
45 10 6 3 47 -14 78 -9 18 -11 18 -25 -10 -9 -16 -15 -33 -14 -37 1 -5 -1 -6
-6 -3 -5 3 -21 10 -35 15 -26 10 -26 11 -12 46 17 38 3 49 -16 13 -12 -22 -12
-22 -19 -3 -7 19 -9 18 -20 -7 -12 -25 -14 -26 -25 -11 -10 13 -13 6 -19 -43
-4 -32 -14 -66 -23 -76 -9 -10 -13 -18 -9 -18 4 0 2 -9 -4 -20 -11 -21 -54
-28 -65 -10 -3 6 1 10 9 10 43 0 65 128 36 214 -13 41 -29 34 -30 -14 0 -14
-9 -44 -20 -67 -16 -36 -24 -43 -47 -42 -26 0 -27 1 -6 9 29 12 39 67 23 137
-13 59 -18 60 -35 10 -7 -23 -17 -33 -35 -35 -18 -2 -21 0 -11 7 10 7 13 25 9
75 -3 36 -4 66 -1 66 2 0 20 -8 41 -19 44 -22 211 -76 267 -86 61 -10 30 9
-45 29 -36 9 -111 40 -167 68 -100 50 -103 52 -103 85 0 45 24 89 58 107 40
22 98 20 122 -4z m150 -20 c0 -5 -2 -10 -4 -10 -3 0 -8 5 -11 10 -3 6 -1 10 4
10 6 0 11 -4 11 -10z m-636 -755 c3 -8 1 -15 -3 -15 -5 0 -11 7 -15 15 -3 8
-1 15 3 15 5 0 11 -7 15 -15z m106 0 c0 -8 -4 -15 -10 -15 -5 0 -7 7 -4 15 4
8 8 15 10 15 2 0 4 -7 4 -15z m48 -25 c-7 -11 -17 -20 -22 -20 -5 0 -1 9 9 20
10 11 20 20 22 20 2 0 -2 -9 -9 -20z m-202 -17 c-7 -7 -26 7 -26 19 0 6 6 6
15 -2 9 -7 13 -15 11 -17z m989 11 c95 -4 177 -2 224 5 40 6 76 10 78 7 3 -3
-15 -15 -39 -27 -35 -19 -61 -24 -148 -26 -178 -4 -243 -12 -258 -34 -7 -10
-22 -19 -33 -19 -11 0 -17 -4 -14 -10 10 -16 43 -11 62 9 14 16 25 18 53 12
l35 -7 -36 -37 c-38 -38 -78 -54 -106 -42 -16 7 -16 9 2 13 16 4 14 7 -15 17
-32 11 -36 16 -44 65 -9 49 -8 54 14 72 16 13 32 18 50 14 14 -4 93 -9 175
-12z m-838 -21 c27 -18 46 -72 37 -107 -9 -39 -59 -76 -101 -76 -44 0 -103 54
-103 94 0 90 91 138 167 89z m1365 -2 c-57 -49 -148 -72 -306 -77 -111 -4
-142 -8 -151 -20 -6 -9 -34 -22 -61 -29 l-49 -12 32 -7 c33 -8 63 3 98 35 15
13 28 16 55 10 39 -8 32 -17 -30 -37 l-35 -12 30 -1 c26 -1 28 -3 15 -16 -9
-8 -31 -18 -50 -21 -34 -7 -35 -7 -17 13 24 27 21 40 -4 17 -15 -13 -35 -18
-77 -18 l-57 1 35 -14 c18 -8 45 -13 60 -10 14 2 36 1 49 -2 23 -6 23 -7 7
-24 -21 -20 -91 -24 -83 -4 3 9 -4 12 -28 9 -18 -2 -47 4 -65 13 -40 21 -29 0
14 -26 l31 -19 -28 0 c-15 0 -42 7 -60 16 l-32 17 24 -27 c29 -30 84 -36 99
-10 7 13 13 14 30 5 11 -6 36 -11 54 -11 31 -1 32 -1 14 -15 -11 -8 -38 -15
-60 -16 -39 0 -39 -1 -16 -11 21 -10 22 -12 7 -15 -26 -7 -69 6 -62 17 4 6 -7
10 -23 10 -16 0 -41 9 -56 21 -32 25 -34 14 -4 -18 l21 -23 -20 0 c-12 0 -35
12 -52 26 -17 14 -31 22 -31 17 0 -15 55 -63 72 -63 9 0 20 -5 23 -11 15 -23
52 -28 97 -11 l45 16 42 -34 c50 -40 39 -51 -21 -21 -48 24 -59 20 -32 -10 19
-22 19 -22 -2 -11 -11 6 -26 18 -34 26 -14 17 -30 21 -30 7 0 -4 11 -25 25
-45 34 -50 14 -45 -42 10 -30 30 -49 42 -51 34 -3 -7 2 -18 9 -24 8 -6 29 -33
46 -61 18 -27 48 -66 67 -84 20 -19 36 -40 36 -45 0 -6 -23 14 -50 44 -27 30
-50 50 -50 45 0 -6 21 -34 46 -63 54 -62 42 -69 -21 -11 -51 47 -60 40 -14
-10 16 -18 28 -35 25 -38 -10 -10 -47 19 -63 50 l-17 32 -7 -54 c-4 -29 -12
-58 -18 -64 -8 -8 -10 -3 -5 22 6 28 3 36 -21 55 -24 19 -27 29 -27 72 l1 49
-19 -25 c-12 -15 -20 -19 -20 -11 0 8 -6 19 -14 25 -22 18 -56 123 -56 176 0
27 -4 52 -10 55 -5 3 -10 16 -10 28 0 18 -2 19 -10 7 -7 -11 -10 -4 -10 27 0
23 5 45 11 49 6 3 9 17 6 29 -3 21 -1 22 20 14 30 -11 30 5 1 25 -15 11 -24
12 -29 5 -5 -8 -9 -8 -14 1 -29 47 69 2 135 -61 39 -39 56 -49 82 -49 42 0 99
38 128 85 12 19 30 40 40 45 10 6 89 10 175 10 156 0 272 15 340 45 43 19 44
18 7 -14z m-1542 -20 c0 -4 -11 -6 -25 -3 -14 2 -25 6 -25 8 0 2 11 4 25 4 14
0 25 -4 25 -9z m264 -6 c-4 -8 -12 -15 -20 -15 -20 0 -17 18 4 23 9 3 18 5 19
6 1 0 0 -6 -3 -14z m336 -15 c24 -15 7 -19 -25 -5 -23 10 -25 14 -10 14 11 0
27 -3 35 -9z m-610 -40 c0 -5 -4 -10 -9 -10 -6 0 -13 5 -16 10 -3 6 1 10 9 10
9 0 16 -4 16 -10z m280 0 c-19 -13 -30 -13 -30 0 0 6 10 10 23 10 18 0 19 -2
7 -10z m1250 -16 c0 -3 -17 -13 -37 -22 -26 -11 -78 -18 -163 -22 -115 -5
-123 -6 -100 -19 14 -9 63 -17 114 -19 81 -4 87 -6 65 -18 -17 -9 -65 -13
-159 -13 -91 0 -128 3 -112 9 12 5 22 14 22 20 0 5 11 20 25 32 14 12 25 27
25 35 0 9 33 13 138 16 75 1 147 4 160 5 12 1 22 0 22 -4z m-883 -10 c-3 -3
-12 -4 -19 -1 -8 3 -5 6 6 6 11 1 17 -2 13 -5z m-637 -18 c0 -2 -7 -6 -15 -10
-8 -3 -15 -1 -15 4 0 6 7 10 15 10 8 0 15 -2 15 -4z m275 -24 c-21 -5 -45 5
-45 17 0 5 13 4 31 -2 21 -8 26 -13 14 -15z m-247 -26 c-2 -1 -12 -8 -22 -16
-18 -14 -18 -14 -6 7 8 12 18 19 23 16 4 -3 7 -6 5 -7z m197 -6 c3 -5 2 -10
-4 -10 -5 0 -13 5 -16 10 -3 6 -2 10 4 10 5 0 13 -4 16 -10z m-169 -47 c-11
-11 -17 4 -9 23 7 18 8 18 11 1 2 -10 1 -21 -2 -24z m134 -18 c0 -5 -10 0 -21
12 -13 12 -18 26 -14 33 6 9 12 6 21 -11 7 -13 13 -28 14 -34z m-73 -2 c-3
-10 -5 -2 -5 17 0 19 2 27 5 18 2 -10 2 -26 0 -35z m1061 11 c52 -15 55 -17
36 -31 -14 -11 -34 -13 -74 -9 l-55 6 45 -26 45 -25 -42 6 c-23 3 -50 8 -60
12 -32 12 3 -23 37 -37 32 -13 31 -30 -1 -30 -28 0 -101 39 -94 50 4 6 13 10
21 10 8 0 27 20 42 45 15 25 31 45 35 45 5 0 34 -7 65 -16z m-254 -89 c19 -14
19 -15 -6 -15 -35 0 -59 10 -52 21 8 13 36 10 58 -6z m360 -142 c-11 -14 -29
-32 -41 -40 -20 -13 -21 -13 -16 6 4 17 2 20 -12 14 -37 -14 -3 19 38 37 50
23 57 18 31 -17z m-658 -24 c21 -22 24 -28 10 -23 -16 6 -18 4 -13 -12 6 -15
3 -15 -13 5 -17 19 -28 61 -17 61 2 0 16 -14 33 -31z m806 -19 c-5 -47 -18
-60 -24 -25 -4 19 14 65 25 65 2 0 1 -18 -1 -40z m-1152 -13 c0 -24 -3 -28
-10 -17 -13 20 -13 63 0 55 6 -3 10 -21 10 -38z m31 1 c11 -21 11 -22 -4 -9
-10 7 -17 17 -17 22 0 15 9 10 21 -13z m235 -3 c9 -14 30 -53 46 -87 23 -50
25 -59 10 -45 -19 17 -20 17 -26 -5 -6 -21 -8 -19 -22 17 -24 62 -43 145 -33
145 5 0 16 -11 25 -25z m-99 -81 c25 -38 38 -69 39 -96 2 -38 2 -39 -17 -22
-10 9 -27 35 -38 58 -19 41 -36 116 -27 116 3 0 23 -25 43 -56z m786 -3 c-15
-29 -45 -68 -68 -87 -42 -34 -66 -45 -48 -21 6 6 16 29 23 50 8 26 28 51 62
78 28 22 52 38 55 36 2 -2 -9 -28 -24 -56z m-144 -37 c-18 -19 -36 -34 -40
-34 -15 0 23 91 44 105 21 15 22 14 25 -11 3 -19 -6 -36 -29 -60z m-328 15
c-5 -13 -10 -19 -10 -12 -1 15 10 45 15 40 3 -2 0 -15 -5 -28z m135 -7 c-9 -8
-26 10 -26 26 1 15 2 15 15 -2 8 -11 13 -21 11 -24z m129 -26 c-12 -24 -33
-45 -66 -63 -27 -14 -59 -42 -70 -60 -12 -19 -23 -32 -26 -29 -8 8 35 80 64
108 35 33 107 86 111 82 2 -1 -4 -18 -13 -38z m-479 -23 c8 -32 18 -66 21 -76
4 -17 3 -17 -25 -3 -34 18 -44 52 -30 102 5 19 11 34 13 34 3 0 12 -26 21 -57z
m574 22 c0 -29 -65 -82 -142 -118 -43 -20 -78 -34 -78 -31 0 22 32 49 99 84
43 23 87 50 97 61 21 23 24 24 24 4z m-330 -4 c0 -6 -4 -13 -10 -16 -5 -3 -10
1 -10 9 0 9 5 16 10 16 6 0 10 -4 10 -9z m-88 -138 c-4 -2 -29 3 -56 10 -54
13 -69 37 -58 93 5 28 5 27 63 -37 31 -35 54 -65 51 -66z m50 96 c-3 -20 -8
-27 -14 -21 -6 6 -6 17 1 31 16 28 18 26 13 -10z m465 -12 c-6 -16 -101 -55
-152 -63 -26 -4 -25 -3 10 12 22 9 60 32 85 49 43 31 69 32 57 2z m-457 -76
c0 -7 -8 -11 -17 -9 -22 4 -78 82 -69 96 7 12 86 -68 86 -87z m57 67 c-3 -8
-6 -5 -6 6 -1 11 2 17 5 13 3 -3 4 -12 1 -19z m-7 -60 c0 -40 -27 -36 -35 5
-4 17 -9 41 -12 52 -5 18 -3 18 21 -4 16 -15 26 -35 26 -53z m41 11 c-19 -43
-20 -43 -20 -14 -1 30 30 88 36 69 2 -6 -5 -31 -16 -55z"/>
<path d="M1569 8737 c-9 -24 -4 -37 15 -37 12 0 27 -5 33 -11 9 -9 11 -5 9 17
-3 23 -8 29 -30 31 -14 1 -26 1 -27 0z"/>
<path d="M883 8705 c0 -19 3 -23 12 -15 7 6 19 8 27 5 10 -4 17 1 21 14 4 18
1 21 -28 21 -28 0 -32 -3 -32 -25z"/>
<path d="M1260 8705 c0 -9 9 -15 21 -15 18 0 19 2 5 15 -8 8 -17 15 -20 15 -3
0 -6 -7 -6 -15z"/>
<path d="M1210 7921 c-15 -30 -12 -36 9 -17 10 9 32 21 47 26 29 8 28 8 -8 9
-27 1 -40 -4 -48 -18z"/>
<path d="M1442 7868 c-7 -7 -12 -19 -12 -27 0 -11 5 -10 23 6 12 12 31 23 42
26 14 3 11 5 -10 6 -17 0 -36 -4 -43 -11z"/>
<path d="M326 8825 c-19 -24 -24 -36 -14 -32 11 4 41 -16 91 -59 61 -53 74
-69 69 -87 l-5 -22 22 20 c31 27 49 60 28 52 -20 -8 -151 109 -157 141 -5 25
-5 25 -34 -13z"/>
<path d="M2222 8766 c4 -28 -138 -129 -170 -121 -27 7 -28 8 37 -83 45 -64 48
-66 75 -56 24 9 19 24 -8 24 -16 0 -32 11 -45 29 -27 38 -27 43 11 71 37 27
63 18 63 -24 -1 -32 3 -32 40 0 24 20 26 24 9 19 -16 -4 -26 1 -38 19 -15 24
-15 26 20 52 l36 28 19 -25 c12 -14 18 -35 16 -51 -4 -31 4 -36 23 -13 13 16
-4 48 -65 120 -20 23 -25 26 -23 11z"/>
<path d="M231 8714 c-26 -33 -27 -76 -3 -97 23 -21 52 -21 99 -2 45 19 58 19
77 -1 33 -32 6 -74 -47 -74 -30 -1 -31 -1 -13 -15 23 -18 16 -27 -33 -44 -55
-18 -78 -14 -85 14 -4 14 -18 31 -31 37 -39 18 -72 -3 -100 -64 -29 -63 -33
-87 -10 -68 23 20 195 -54 195 -84 1 -20 2 -19 14 4 7 14 17 36 21 50 7 22 6
23 -8 12 -12 -11 -22 -10 -51 2 -20 8 -36 22 -36 30 0 9 2 16 4 16 2 0 27 5
57 10 52 10 99 41 99 66 0 6 7 14 14 17 22 9 48 65 41 87 -16 51 -63 63 -136
34 -39 -16 -41 -16 -61 3 -16 17 -18 24 -9 42 7 13 21 21 36 21 28 0 33 15 9
24 -22 8 -20 9 -43 -20z m-27 -235 c15 -22 8 -64 -10 -64 -27 1 -84 31 -84 45
0 42 68 56 94 19z"/>
<path d="M7746 8568 c-15 -21 -27 -40 -25 -42 13 -8 277 -82 274 -75 -4 6
-184 136 -210 151 -6 4 -23 -12 -39 -34z"/>
<path d="M2296 8531 c-9 -10 -20 -36 -23 -57 -9 -59 -20 -74 -53 -74 -23 0
-31 5 -36 26 -4 14 -1 37 5 50 15 34 14 36 -9 22 -45 -28 -4 -128 52 -128 42
1 78 45 78 95 0 14 5 35 10 46 20 36 70 17 70 -26 0 -12 -5 -26 -12 -33 -16
-16 3 -15 26 1 14 10 15 18 7 38 -22 58 -80 78 -115 40z"/>
<path d="M6480 8433 c-69 -11 -141 -56 -165 -103 -33 -63 -7 -166 52 -208 16
-10 79 -45 141 -77 114 -58 142 -84 142 -135 0 -53 -70 -100 -148 -100 -53 0
-132 25 -177 55 -20 14 -39 25 -40 23 -8 -8 25 -122 37 -129 23 -14 107 -29
167 -29 157 0 281 92 281 210 0 83 -34 118 -196 198 -96 48 -154 96 -154 127
0 88 137 122 247 61 l43 -25 0 59 0 58 -50 11 c-50 11 -129 12 -180 4z"/>
<path d="M5366 8423 c-157 -3 -186 -6 -172 -16 28 -21 35 -86 35 -327 1 -236
-6 -296 -36 -317 -14 -11 20 -13 201 -11 l218 3 24 63 c24 65 22 72 -13 47
-43 -30 -124 -43 -208 -34 -44 4 -81 8 -82 8 -2 1 -3 53 -3 116 l0 115 66 0
c36 0 74 -5 85 -10 18 -10 19 -7 19 42 l0 53 -85 -4 -86 -3 3 93 3 94 91 0
c76 0 96 -3 113 -19 l21 -19 0 66 c0 37 -1 66 -2 65 -2 -2 -88 -4 -192 -5z"/>
<path d="M7065 8373 c-21 -71 -19 -75 18 -53 24 15 50 20 105 20 l72 0 0 -269
c0 -256 -1 -269 -21 -295 l-20 -26 102 0 102 0 -24 26 -24 26 -3 269 -3 269
68 0 c47 0 76 -5 91 -16 13 -9 25 -14 27 -13 2 2 10 29 17 59 l15 55 -254 0
-253 0 -15 -52z"/>
<path d="M2864 8407 c28 -21 36 -81 36 -306 0 -195 2 -219 20 -257 57 -116
252 -152 374 -69 l36 24 0 -24 c0 -25 1 -25 82 -25 68 0 79 2 65 13 -32 24
-37 66 -37 322 0 256 5 298 37 323 14 10 -2 12 -85 12 l-103 0 21 -28 c20 -27
21 -38 18 -264 -3 -234 -3 -237 -27 -262 -54 -57 -171 -72 -230 -29 -52 38
-63 81 -69 252 -6 193 3 286 29 312 19 19 17 19 -83 19 -85 0 -99 -2 -84 -13z"/>
<path d="M3581 8394 l24 -26 0 -283 0 -283 -24 -26 -24 -26 93 0 94 0 -22 20
c-12 11 -24 31 -27 43 -3 12 -4 117 -3 234 l3 211 190 -240 c188 -238 224
-277 278 -297 l27 -11 0 324 0 324 26 31 26 31 -93 0 -92 0 24 -26 c23 -25 24
-32 27 -192 2 -92 2 -194 0 -227 l-3 -60 -200 253 -199 252 -75 0 -74 0 24
-26z"/>
<path d="M4299 8394 c20 -26 21 -39 21 -309 0 -270 -1 -283 -21 -309 l-20 -26
97 0 97 0 -19 21 c-18 20 -19 40 -19 314 0 274 1 294 19 314 l19 21 -97 0 -97
0 20 -26z"/>
<path d="M4534 8383 c14 -21 66 -150 116 -288 51 -137 101 -266 110 -286 20
-38 97 -96 110 -82 5 4 66 157 136 338 69 182 129 336 131 343 4 9 -15 12 -76
12 l-81 0 20 -20 c11 -11 20 -29 20 -41 0 -22 -156 -448 -169 -462 -7 -7 -192
485 -191 511 0 8 -22 12 -75 12 l-75 0 24 -37z"/>
<path d="M5696 8399 c18 -20 19 -40 19 -314 0 -274 -1 -294 -19 -314 l-19 -21
97 0 97 0 -20 26 c-20 26 -21 39 -21 300 l0 274 56 0 c90 0 133 -35 134 -107
0 -59 -43 -108 -116 -129 -30 -8 -54 -18 -54 -20 0 -10 86 -133 152 -216 98
-124 104 -128 201 -128 l80 0 -65 50 c-54 41 -238 254 -238 274 0 3 6 6 13 6
23 0 96 58 117 93 28 46 27 124 -3 168 -12 19 -42 44 -67 57 -40 20 -58 22
-204 22 l-159 0 19 -21z"/>
<path d="M6836 8399 c18 -20 19 -40 19 -314 0 -274 -1 -294 -19 -314 l-19 -21
98 0 98 0 -19 21 c-18 20 -19 40 -19 314 0 274 1 294 19 314 l19 21 -98 0 -98
0 19 -21z"/>
<path d="M7764 8404 c9 -8 16 -20 16 -25 0 -5 -50 -134 -111 -286 -81 -205
-119 -287 -142 -310 l-31 -33 94 0 93 0 -19 21 c-18 21 -18 22 17 122 l36 102
127 0 128 0 40 -105 40 -104 -22 -18 c-22 -18 -19 -18 85 -18 l107 0 -33 38
c-25 28 -65 114 -154 335 l-119 297 -84 0 c-76 0 -82 -1 -68 -16z m83 -322
c-49 -1 -91 -1 -93 1 -2 1 18 56 43 121 l47 119 46 -119 47 -119 -90 -3z"/>
<path d="M2428 8382 c-4 -13 -30 -27 -91 -45 -94 -30 -107 -32 -107 -17 0 6
-4 10 -9 10 -6 0 -3 -21 6 -47 13 -39 17 -43 24 -27 10 28 182 82 204 64 18
-15 19 -9 3 41 -12 42 -23 49 -30 21z"/>
<path d="M26 8249 c-19 -87 -20 -97 -4 -81 16 16 38 15 130 -5 63 -13 78 -20
78 -35 0 -41 17 -14 29 45 6 34 14 74 17 89 5 20 1 29 -16 38 -28 15 -37 6
-15 -16 12 -12 15 -26 11 -47 -11 -56 -23 -61 -97 -41 -23 6 -12 53 14 63 24
9 15 16 -33 26 -34 7 -34 7 -18 -12 23 -25 13 -63 -16 -63 -11 0 -32 3 -44 7
-21 5 -23 10 -18 37 4 17 16 39 29 48 l22 18 -26 0 c-25 0 -28 -5 -43 -71z"/>
<path d="M2470 8229 c-20 -25 -187 -40 -200 -18 -13 20 -18 8 -12 -34 4 -32 6
-35 16 -21 13 17 77 33 135 34 l33 0 -87 -95 c-56 -61 -81 -95 -70 -95 9 0 60
5 112 11 89 11 97 10 110 -7 12 -17 13 -16 12 7 -1 13 -4 35 -8 49 -7 24 -7
24 -13 3 -5 -17 -16 -23 -54 -28 -27 -3 -62 -8 -77 -10 l-28 -5 20 28 c11 15
47 56 81 91 51 53 60 67 53 86 -8 22 -8 22 -23 4z"/>
<path d="M0 8084 c0 -25 3 -34 9 -26 6 11 25 7 92 -21 l84 -35 -35 -14 c-113
-47 -131 -52 -141 -37 -6 9 -9 -2 -9 -35 0 -47 0 -48 18 -28 9 11 62 37 117
58 55 21 104 41 108 45 5 4 -8 12 -29 19 -69 23 -189 81 -201 97 -11 14 -13
11 -13 -23z"/>
<path d="M2277 7959 c-4 -13 -7 -33 -7 -44 0 -16 2 -17 10 -5 8 12 13 12 44
-3 29 -14 36 -22 36 -46 0 -20 -7 -34 -19 -41 -27 -14 -71 -13 -72 3 -2 16
-16 -42 -17 -68 -1 -18 0 -19 12 -3 8 11 49 25 112 38 128 27 135 30 129 41
-3 5 -51 32 -106 60 -62 32 -104 60 -108 72 -7 20 -8 19 -14 -4z m161 -121
c-7 -4 -25 -8 -39 -8 -22 0 -26 4 -22 24 5 24 5 24 39 8 24 -11 30 -18 22 -24z"/>
<path d="M233 7856 c-6 -11 -39 -21 -103 -32 -89 -14 -95 -14 -107 2 -12 16
-13 15 -12 -12 1 -35 17 -88 18 -62 1 20 44 33 138 44 45 5 67 3 78 -6 14 -12
15 -8 9 31 -8 53 -10 55 -21 35z"/>
<path d="M160 7703 c-77 -28 -99 -32 -114 -23 -16 10 -18 9 -12 -5 3 -9 9 -28
12 -41 3 -13 10 -24 15 -24 5 0 6 6 3 14 -3 8 4 19 16 26 28 15 130 50 130 45
0 -7 -73 -139 -93 -168 -13 -19 -17 -36 -12 -57 8 -35 22 -39 27 -7 2 18 18
27 83 50 44 16 90 26 103 24 19 -4 22 -1 16 17 -4 11 -10 28 -15 36 -7 13 -8
13 -9 -1 0 -17 -25 -31 -107 -60 l-53 -18 16 32 c9 18 36 67 60 109 24 43 44
80 44 83 0 7 -6 6 -110 -32z"/>
<path d="M2200 7618 c-26 -43 -25 -64 5 -93 27 -28 49 -31 81 -12 80 46 84 48
104 37 29 -16 25 -48 -11 -69 -24 -15 -27 -20 -14 -25 27 -10 32 -7 45 23 18
44 9 83 -23 101 -25 14 -30 13 -80 -14 -57 -30 -83 -31 -101 -3 -15 24 2 49
43 63 34 11 31 24 -6 24 -16 0 -30 -11 -43 -32z"/>
<path d="M320 7463 c-8 -3 -41 -24 -73 -45 -37 -25 -66 -38 -78 -35 -25 7 -24
-2 7 -38 14 -16 23 -22 20 -13 -10 34 126 125 170 114 29 -8 55 -55 47 -85 -8
-32 -122 -113 -150 -108 -30 6 -29 -1 8 -43 17 -19 28 -27 25 -17 -4 13 12 30
63 67 73 53 81 64 81 111 0 53 -74 110 -120 92z"/>
<path d="M2112 7443 c-35 -51 -36 -56 -14 -49 14 5 42 -7 94 -40 40 -26 77
-50 82 -55 14 -13 -22 -59 -46 -59 -20 0 -20 -1 -3 -20 17 -19 19 -17 72 65
30 47 59 85 64 85 5 0 2 11 -7 25 -21 32 -33 32 -27 1 5 -25 -12 -66 -27 -66
-5 0 -46 23 -90 51 -63 40 -80 56 -77 70 7 26 2 24 -21 -8z"/>
<path d="M7079 7407 c-102 -43 -164 -101 -207 -195 -19 -43 -25 -70 -24 -131
0 -102 28 -175 91 -240 186 -191 519 -140 629 97 22 47 26 72 27 142 0 71 -4
94 -26 141 -36 76 -86 129 -161 170 -58 31 -71 34 -168 37 -92 2 -112 0 -161
-21z m248 -78 c105 -51 170 -195 143 -322 -31 -149 -170 -235 -313 -193 -173
50 -247 302 -132 452 60 78 207 109 302 63z"/>
<path d="M2871 7394 l24 -26 0 -283 c0 -282 0 -283 -24 -315 l-23 -32 183 4
c182 3 185 3 249 34 84 40 129 79 166 146 27 50 29 60 29 163 0 124 -14 163
-82 231 -77 77 -182 103 -412 104 l-134 0 24 -26z m366 -90 c81 -39 123 -115
123 -223 0 -88 -16 -131 -69 -181 -58 -57 -131 -82 -222 -78 l-64 3 0 250 0
250 30 7 c53 12 147 -1 202 -28z"/>
<path d="M3510 7415 c0 -3 9 -14 20 -25 19 -19 20 -33 20 -309 0 -277 -1 -289
-21 -315 l-20 -26 102 0 103 0 -21 20 c-31 28 -35 74 -31 352 3 238 4 247 26
277 l23 31 -101 0 c-55 0 -100 -2 -100 -5z"/>
<path d="M3977 7363 c-8 -32 -14 -59 -13 -60 2 -2 18 4 36 13 18 9 64 19 101
22 l69 5 1 -239 c2 -298 2 -303 -22 -336 l-20 -28 107 0 107 0 -26 24 c-34 31
-39 79 -35 351 l3 220 53 3 c38 2 66 -3 93 -16 l39 -19 11 41 c5 22 12 49 15
59 5 16 -11 17 -249 17 l-254 0 -16 -57z"/>
<path d="M4510 7416 c0 -3 9 -15 20 -26 19 -19 20 -33 20 -309 0 -277 -1 -289
-21 -315 l-20 -26 102 0 c84 0 100 2 86 13 -32 24 -37 66 -37 327 l0 258 40 7
c85 14 155 -36 155 -110 0 -67 -47 -107 -163 -141 -22 -6 153 -250 233 -324
23 -22 37 -25 113 -29 l86 -3 -64 49 c-39 29 -102 96 -157 164 l-91 114 36 18
c150 72 163 247 23 310 -38 17 -72 22 -203 25 -87 2 -158 2 -158 -2z"/>
<path d="M5150 7410 c0 -5 4 -10 9 -10 26 0 32 -64 29 -337 -3 -260 -4 -283
-22 -302 l-19 -21 216 0 215 0 21 62 c12 34 21 65 21 68 0 4 -25 -6 -56 -22
-60 -29 -118 -35 -218 -22 l-46 7 0 120 0 120 70 -5 c38 -3 77 -11 85 -18 13
-11 15 -5 15 44 l0 56 -85 0 -85 0 0 89 0 90 45 7 c55 8 126 -2 151 -21 30
-23 34 -18 34 45 l0 60 -190 0 c-120 0 -190 -4 -190 -10z"/>
<path d="M5630 7410 c0 -6 6 -13 14 -16 30 -11 36 -67 36 -324 0 -257 0 -257
-25 -294 l-24 -36 90 0 91 0 -26 31 -26 31 0 226 c0 192 2 224 14 212 7 -8 82
-103 167 -210 84 -107 166 -211 182 -230 33 -39 103 -90 123 -90 11 0 14 66
16 331 3 329 3 331 26 349 12 10 22 21 22 24 0 3 -40 6 -90 6 -53 0 -90 -4
-90 -10 0 -5 5 -10 11 -10 5 0 17 -16 25 -35 11 -28 14 -79 12 -246 l-3 -210
-195 246 c-107 135 -196 250 -198 256 -5 13 -152 12 -152 -1z"/>
<path d="M6365 7408 c-3 -7 -11 -35 -19 -61 -13 -45 -13 -48 2 -41 61 25 94
33 145 34 l57 0 0 -259 c0 -262 -5 -304 -37 -328 -14 -11 3 -13 91 -13 l108 0
-26 31 -26 31 0 270 0 270 69 -4 c50 -2 75 -9 90 -22 16 -15 22 -16 25 -5 8
24 26 94 26 102 0 4 -113 7 -250 7 -191 0 -252 -3 -255 -12z"/>
<path d="M1941 7245 c-48 -55 -41 -86 34 -165 24 -25 45 -55 47 -68 3 -23 3
-23 33 8 25 27 27 31 9 26 -28 -8 -134 100 -134 137 0 59 62 88 114 54 38 -26
99 -105 92 -122 -8 -22 5 -18 36 12 31 30 36 46 12 36 -11 -4 -34 13 -75 56
-52 54 -63 61 -98 61 -32 0 -44 -6 -70 -35z"/>
<path d="M553 7226 c5 -14 -83 -153 -106 -168 -5 -3 -17 -4 -26 -1 -10 3 -7
-3 7 -16 l23 -20 95 51 95 51 -6 -39 c-4 -22 -13 -68 -21 -103 -13 -59 -13
-65 3 -77 25 -19 35 -17 29 4 -9 26 99 162 128 162 19 1 18 3 -9 25 -33 27
-54 33 -35 10 10 -12 4 -26 -34 -77 -51 -68 -53 -65 -30 47 9 42 14 79 11 81
-3 3 -42 -15 -87 -40 -45 -26 -84 -46 -87 -46 -2 0 15 27 39 60 27 39 49 60
62 60 19 1 18 3 -9 25 -34 28 -50 32 -42 11z"/>
<path d="M1789 7130 c-101 -52 -134 -123 -94 -200 36 -69 121 -71 227 -4 37
24 40 28 23 34 -11 4 -40 43 -64 86 -35 64 -41 81 -32 96 15 24 6 22 -60 -12z
m23 -37 c17 -19 88 -145 88 -156 0 -13 -60 -37 -91 -37 -22 0 -41 10 -66 35
-31 31 -34 39 -31 82 3 41 7 50 37 70 41 28 44 28 63 6z"/>
<path d="M826 7027 c-12 -12 -35 -55 -50 -95 -19 -48 -33 -72 -44 -72 -27 0 1
-19 38 -26 31 -6 33 -5 18 7 -16 13 -16 18 5 81 13 37 32 76 42 88 37 41 115
12 115 -43 0 -46 -41 -148 -64 -157 -21 -8 -21 -8 4 -18 14 -5 36 -13 50 -17
22 -7 23 -6 11 8 -11 14 -10 26 8 79 36 106 26 155 -36 179 -40 15 -73 10 -97
-14z"/>
<path d="M1563 7028 c-18 -6 -33 -15 -33 -20 0 -5 4 -7 9 -4 14 9 27 -14 56
-102 21 -66 24 -86 15 -97 -16 -19 0 -19 50 -1 28 10 31 13 15 18 -29 7 -84
180 -65 202 15 19 3 20 -47 4z"/>
<path d="M1034 6979 c15 -11 36 -39 47 -61 l20 -40 -25 -23 c-61 -57 -7 -115
107 -115 33 0 36 2 26 18 -17 26 -2 191 17 199 29 11 12 23 -33 23 -38 -1 -44
-3 -30 -11 27 -16 20 -89 -9 -89 -7 0 -23 18 -34 40 -28 55 -55 80 -86 80
l-27 0 27 -21z m136 -138 c0 -46 -13 -81 -31 -81 -40 0 -65 60 -37 88 7 7 25
12 40 12 21 0 28 -5 28 -19z"/>
<path d="M1314 6956 c-29 -29 -34 -41 -34 -80 0 -61 21 -99 66 -121 37 -17 87
-15 127 7 28 14 57 69 57 106 0 76 -50 122 -131 122 -45 0 -55 -4 -85 -34z
m137 -4 c27 -24 33 -37 37 -85 4 -50 2 -58 -21 -81 -50 -50 -127 -22 -147 55
-14 53 -5 94 27 119 35 28 67 25 104 -8z"/>
<path d="M2910 6175 l0 -215 90 0 c151 0 173 23 178 199 7 200 -16 231 -172
231 l-96 0 0 -215z m171 123 c8 -14 13 -63 13 -119 0 -118 -15 -149 -69 -149
l-35 0 0 145 0 145 40 0 c30 0 42 -5 51 -22z"/>
<path d="M6062 6374 c-15 -11 -22 -25 -22 -50 0 -22 -6 -37 -15 -40 -8 -4 -15
-16 -15 -29 0 -13 7 -25 15 -29 12 -4 15 -29 15 -136 l0 -130 40 0 40 0 0 135
c0 113 2 135 15 135 9 0 15 9 15 25 0 16 -6 25 -15 25 -9 0 -15 9 -15 25 0 16
6 25 15 25 10 0 15 10 15 30 0 27 -3 30 -33 30 -18 0 -43 -7 -55 -16z"/>
<path d="M6330 6175 l0 -215 45 0 44 0 3 158 3 157 23 -110 c13 -60 28 -131
34 -157 9 -43 12 -48 37 -48 28 0 28 0 62 158 l34 157 3 -157 3 -158 39 0 40
0 0 215 0 215 -64 0 -63 0 -22 -100 c-11 -56 -21 -107 -21 -115 0 -8 -3 -15
-8 -15 -4 0 -18 52 -31 115 l-24 115 -68 0 -69 0 0 -215z"/>
<path d="M7210 6175 l0 -215 40 0 40 0 0 124 c0 129 9 156 45 142 12 -4 15
-29 15 -136 l0 -130 40 0 40 0 0 145 c0 132 -2 147 -20 165 -24 24 -77 26
-102 3 -17 -15 -18 -13 -18 50 l0 67 -40 0 -40 0 0 -215z"/>
<path d="M8670 6355 c0 -34 1 -35 40 -35 39 0 40 1 40 35 0 34 -1 35 -40 35
-39 0 -40 -1 -40 -35z"/>
<path d="M4290 6330 c0 -27 -5 -43 -15 -46 -8 -4 -15 -17 -15 -30 0 -15 6 -24
15 -24 13 0 15 -20 15 -123 0 -82 4 -127 12 -135 7 -7 31 -12 55 -12 41 0 43
1 43 30 0 20 -5 30 -15 30 -12 0 -15 18 -15 105 0 87 3 105 15 105 9 0 15 9
15 25 0 16 -6 25 -15 25 -11 0 -15 12 -15 45 l0 45 -40 0 -40 0 0 -40z"/>
<path d="M5450 6325 c0 -33 -4 -45 -15 -45 -9 0 -15 -9 -15 -25 0 -16 6 -25
15 -25 12 0 15 -20 15 -119 0 -137 7 -151 71 -151 36 0 39 2 39 29 0 16 -6 31
-15 35 -12 4 -15 26 -15 106 0 82 3 100 15 100 9 0 15 9 15 25 0 16 -6 25 -15
25 -11 0 -15 12 -15 45 l0 45 -40 0 -40 0 0 -45z"/>
<path d="M7060 6325 c0 -33 -4 -45 -15 -45 -9 0 -15 -9 -15 -25 0 -16 6 -25
15 -25 13 0 15 -20 15 -123 0 -82 4 -127 12 -135 7 -7 31 -12 55 -12 41 0 43
1 43 30 0 20 -5 30 -15 30 -12 0 -15 18 -15 105 0 87 3 105 15 105 9 0 15 9
15 25 0 16 -6 25 -15 25 -11 0 -15 12 -15 45 l0 45 -40 0 -40 0 0 -45z"/>
<path d="M8510 6330 c0 -27 -5 -43 -15 -46 -8 -4 -15 -16 -15 -29 0 -13 7 -25
15 -29 12 -4 15 -28 15 -124 0 -78 4 -122 12 -130 7 -7 31 -12 55 -12 41 0 43
2 43 29 0 20 -6 30 -20 34 -18 5 -20 14 -20 102 0 88 2 97 20 102 13 3 20 14
20 28 0 14 -7 25 -20 28 -16 4 -20 14 -20 46 0 40 -1 41 -35 41 -34 0 -35 -1
-35 -40z"/>
<path d="M3273 6266 c-28 -24 -28 -26 -28 -140 0 -111 1 -117 26 -142 54 -53
159 -41 185 22 23 54 19 64 -25 64 -33 0 -40 -4 -45 -24 -13 -52 -66 -32 -66
25 l0 29 76 0 77 0 -5 72 c-5 62 -9 75 -32 95 -39 33 -124 33 -163 -1z m111
-52 c13 -34 7 -44 -29 -44 -24 0 -35 5 -35 14 0 29 13 46 35 46 13 0 26 -7 29
-16z"/>
<path d="M3627 6283 c-4 -4 -28 -6 -52 -4 l-45 3 0 -216 0 -216 35 0 35 0 0
66 0 65 22 -15 c45 -32 99 -15 117 35 18 52 14 208 -7 249 -15 30 -22 35 -57
38 -23 2 -44 0 -48 -5z m37 -69 c3 -9 6 -51 6 -94 0 -59 -4 -83 -16 -95 -30
-30 -44 -1 -44 90 0 96 5 115 30 115 10 0 21 -7 24 -16z"/>
<path d="M3837 6268 c-14 -13 -28 -35 -31 -50 -6 -27 -5 -28 33 -28 31 0 40 4
44 21 8 29 62 24 62 -6 0 -14 -16 -28 -57 -47 -82 -39 -108 -100 -73 -168 19
-37 73 -50 110 -26 15 10 26 12 30 6 3 -6 22 -10 41 -10 l35 0 -3 146 c-3 139
-4 147 -27 165 -35 29 -131 27 -164 -3z m113 -175 c0 -64 -26 -97 -56 -72 -22
18 -17 48 12 74 35 32 44 31 44 -2z"/>
<path d="M4192 6268 c-19 -19 -22 -20 -22 -5 0 13 -9 17 -35 17 l-35 0 0 -160
0 -160 35 0 35 0 0 89 c0 111 10 139 50 147 28 6 30 10 30 50 0 36 -3 44 -18
44 -10 0 -28 -10 -40 -22z"/>
<path d="M4546 6281 c-3 -4 -28 -6 -56 -3 l-50 5 0 -162 0 -161 40 0 40 0 0
109 c0 128 10 164 43 159 21 -3 22 -7 25 -135 l3 -133 39 0 40 0 0 119 c0 133
4 151 31 151 31 0 39 -33 39 -154 l0 -116 41 0 40 0 -3 144 c-3 125 -6 147
-22 165 -23 26 -97 29 -116 6 -12 -14 -15 -14 -30 0 -18 16 -95 21 -104 6z"/>
<path d="M4909 6261 c-28 -29 -29 -32 -29 -131 0 -69 5 -110 15 -129 16 -32
59 -51 112 -51 46 0 93 46 93 89 0 29 -2 31 -40 31 -36 0 -40 -3 -40 -24 0
-28 -17 -37 -42 -24 -12 6 -18 20 -18 43 l0 35 70 0 70 0 0 70 c0 62 -3 74
-25 95 -20 21 -34 25 -80 25 -49 0 -60 -4 -86 -29z m111 -50 c17 -32 12 -41
-25 -41 -30 0 -35 3 -35 23 0 13 3 27 7 30 13 14 43 7 53 -12z"/>
<path d="M5257 6273 c-11 -11 -17 -13 -17 -5 0 7 -14 12 -35 12 l-35 0 0 -160
0 -160 34 0 34 0 4 120 c2 93 7 123 19 135 15 15 17 15 33 0 13 -13 16 -38 16
-136 l0 -119 41 0 40 0 -3 144 c-3 125 -6 147 -22 165 -24 26 -84 28 -109 4z"/>
<path d="M5776 6267 c-38 -38 -46 -186 -15 -269 14 -34 58 -52 115 -45 77 8
88 27 92 161 4 110 3 113 -23 144 -25 29 -32 32 -86 32 -49 0 -64 -4 -83 -23z
m112 -143 c2 -95 1 -102 -18 -107 -36 -9 -50 18 -50 99 0 87 12 117 43 112 21
-3 22 -9 25 -104z"/>
<path d="M6803 6278 c-19 -9 -43 -54 -43 -79 0 -5 17 -9 39 -9 30 0 40 4 44
20 6 23 52 28 60 7 8 -22 -7 -37 -61 -62 -66 -31 -86 -61 -79 -122 8 -74 69
-107 124 -68 14 10 24 12 28 5 3 -5 22 -10 42 -10 l35 0 -4 146 c-3 139 -4
147 -27 165 -26 21 -119 26 -158 7z m104 -199 c-7 -53 -29 -78 -51 -59 -25 20
-19 56 12 79 39 29 45 26 39 -20z"/>
<path d="M7523 6266 c-28 -24 -28 -26 -28 -140 0 -111 1 -116 26 -142 58 -58
168 -38 188 34 15 52 15 52 -29 52 -28 0 -40 -4 -40 -14 0 -8 -7 -22 -16 -30
-24 -25 -54 -4 -54 39 l0 34 73 3 c67 3 72 4 75 27 7 47 -9 113 -33 137 -35
34 -122 34 -162 0z m111 -52 c13 -34 7 -44 -29 -44 -24 0 -35 5 -35 14 0 29
13 46 35 46 13 0 26 -7 29 -16z"/>
<path d="M7876 6274 c-9 -8 -16 -11 -16 -5 0 6 -18 11 -40 11 l-40 0 0 -160 0
-160 40 0 40 0 0 119 c0 133 4 151 31 151 31 0 39 -33 39 -154 l0 -116 40 0
39 0 3 133 3 132 25 0 25 0 3 -132 3 -133 39 0 40 0 0 149 c0 144 -1 151 -22
165 -28 20 -88 21 -113 2 -16 -11 -21 -11 -33 0 -18 19 -87 18 -106 -2z"/>
<path d="M8241 6273 c-11 -10 -24 -33 -27 -50 -6 -33 -6 -33 34 -33 31 0 41 4
45 20 6 23 52 28 60 7 8 -21 -3 -32 -60 -61 -64 -32 -83 -58 -83 -114 0 -75
70 -117 128 -76 12 8 22 10 22 5 0 -6 19 -11 41 -11 38 0 41 2 35 23 -3 12 -6
77 -6 144 0 113 -2 124 -22 143 -29 27 -135 29 -167 3z m96 -250 c-20 -21 -47
-5 -47 27 0 19 9 36 28 50 l27 22 3 -43 c2 -26 -2 -47 -11 -56z"/>
<path d="M8841 6271 c-26 -26 -34 -72 -30 -180 3 -76 7 -94 25 -111 25 -26 88
-36 127 -21 30 12 57 62 57 106 0 23 -4 25 -40 25 -35 0 -40 -3 -40 -22 0 -32
-15 -52 -34 -45 -13 5 -16 23 -16 94 0 48 4 94 9 102 13 21 41 5 41 -24 0 -23
4 -25 41 -25 l42 0 -6 38 c-9 54 -46 82 -108 82 -35 0 -54 -5 -68 -19z"/>
<path d="M9075 6265 c-47 -46 -27 -109 52 -165 67 -47 80 -71 47 -84 -21 -8
-44 11 -44 35 0 15 -8 19 -40 19 -36 0 -40 -2 -40 -26 0 -61 54 -100 129 -91
55 6 91 42 91 90 0 42 -20 69 -78 109 -54 37 -62 46 -55 65 9 22 48 11 51 -14
3 -19 10 -23 43 -23 33 0 39 3 39 20 0 29 -26 76 -45 84 -9 3 -41 6 -71 6 -45
0 -59 -4 -79 -25z"/>
<path d="M8670 6120 l0 -160 40 0 40 0 0 160 0 160 -40 0 -40 0 0 -160z"/>
<path d="M2912 5608 l3 -213 113 -3 112 -3 0 26 c0 25 0 25 -90 25 l-90 0 0
190 0 190 -25 0 -25 0 2 -212z"/>
<path d="M3442 5608 c3 -212 3 -213 26 -216 12 -2 22 2 22 8 0 7 6 8 19 0 22
-11 71 -13 96 -4 25 10 45 59 52 128 7 82 -2 128 -33 166 -21 24 -34 30 -64
30 -21 0 -42 -4 -45 -10 -15 -25 -25 -5 -25 50 0 57 -1 60 -25 60 l-25 0 2
-212z m145 45 c25 -38 24 -159 -1 -197 -22 -35 -65 -33 -83 4 -16 31 -17 138
-2 177 19 51 59 58 86 16z"/>
<path d="M5792 5807 c-6 -7 -12 -30 -14 -52 -2 -33 -7 -41 -25 -43 -33 -5 -31
-42 2 -42 l25 0 0 -141 c0 -140 0 -140 23 -137 21 3 22 6 25 141 2 129 4 137
22 137 13 0 20 7 20 20 0 13 -7 20 -20 20 -16 0 -20 7 -20 35 0 28 4 35 20 35
13 0 20 7 20 20 0 16 -7 20 -34 20 -18 0 -38 -6 -44 -13z"/>
<path d="M6070 5604 l0 -215 23 3 c22 3 22 6 27 177 l5 174 38 -154 c51 -201
50 -201 84 -197 27 3 29 7 73 178 l45 175 5 -175 c5 -172 5 -175 28 -178 l22
-3 0 215 0 216 -43 0 -43 0 -44 -181 -45 -181 -45 181 -44 181 -43 0 -43 0 0
-216z"/>
<path d="M6912 5608 c3 -212 3 -213 26 -216 22 -3 22 -2 22 118 0 115 1 122
25 145 28 29 47 31 69 9 13 -12 16 -41 16 -145 l0 -129 25 0 25 0 0 145 c0
132 -2 147 -20 165 -24 24 -86 27 -118 4 l-22 -15 0 65 c0 64 -1 66 -25 66
l-25 0 2 -212z"/>
<path d="M8300 5790 c0 -25 4 -30 25 -30 21 0 25 5 25 30 0 25 -4 30 -25 30
-21 0 -25 -5 -25 -30z"/>
<path d="M9096 5804 c-9 -9 -16 -32 -16 -55 0 -35 -3 -39 -25 -39 -18 0 -25
-5 -25 -20 0 -15 7 -20 25 -20 l25 0 0 -140 0 -140 25 0 25 0 0 140 0 140 25
0 c18 0 25 5 25 20 0 15 -7 20 -26 20 -23 0 -25 3 -22 33 2 24 8 33 26 35 14
2 22 10 22 23 0 15 -7 19 -34 19 -19 0 -42 -7 -50 -16z"/>
<path d="M9842 5608 l3 -213 72 -3 c94 -4 138 14 159 65 24 56 14 121 -23 150
-15 13 -22 23 -16 23 24 0 45 60 38 106 -10 68 -38 84 -147 84 l-88 0 2 -212z
m164 151 c8 -6 14 -29 14 -50 0 -46 -27 -69 -82 -69 l-38 0 0 71 0 72 46 -7
c26 -3 53 -11 60 -17z m8 -185 c10 -9 16 -33 16 -59 0 -54 -25 -75 -87 -75
l-43 0 0 75 0 75 49 0 c32 0 55 -6 65 -16z"/>
<path d="M10150 5790 c0 -25 4 -30 25 -30 21 0 25 5 25 30 0 25 -4 30 -25 30
-21 0 -25 -5 -25 -30z"/>
<path d="M10562 5608 c3 -212 3 -213 26 -216 l22 -3 0 215 0 216 -25 0 -25 0
2 -212z"/>
<path d="M12340 5754 l0 -65 -22 15 c-25 18 -70 21 -98 6 -53 -28 -69 -226
-24 -287 26 -35 95 -45 125 -17 18 16 19 16 19 0 0 -12 7 -16 23 -14 22 3 22
4 25 216 l2 212 -25 0 c-24 0 -25 -2 -25 -66z m-23 -101 c27 -40 25 -173 -1
-202 -26 -29 -66 -24 -84 9 -8 16 -12 53 -10 103 3 69 6 81 27 98 32 26 47 24
68 -8z"/>
<path d="M12610 5605 l0 -215 25 0 25 0 1 188 1 187 47 -185 47 -185 32 -3
c27 -3 32 1 38 25 4 15 27 102 50 193 l42 165 1 -192 1 -193 25 0 25 0 0 215
0 215 -45 0 c-43 0 -45 -1 -54 -37 -5 -21 -24 -94 -41 -163 -18 -69 -35 -128
-39 -132 -4 -4 -22 54 -40 130 -55 223 -45 202 -96 202 l-45 0 0 -215z"/>
<path d="M13450 5760 c0 -57 -1 -60 -19 -50 -28 14 -73 12 -97 -5 -36 -24 -46
-66 -42 -169 3 -84 6 -97 27 -120 29 -31 93 -36 123 -9 17 15 18 15 18 0 0
-10 8 -17 20 -17 19 0 20 7 20 215 l0 215 -25 0 c-24 0 -25 -3 -25 -60z m-20
-100 c17 -17 20 -33 20 -103 0 -92 -15 -127 -55 -127 -39 0 -55 35 -55 118 0
115 39 163 90 112z"/>
<path d="M13580 5790 c0 -25 4 -30 25 -30 21 0 25 5 25 30 0 25 -4 30 -25 30
-21 0 -25 -5 -25 -30z"/>
<path d="M13960 5790 c0 -25 4 -30 25 -30 21 0 25 5 25 30 0 25 -4 30 -25 30
-21 0 -25 -5 -25 -30z"/>
<path d="M4458 5758 c-2 -36 -7 -44 -25 -46 -33 -5 -31 -42 2 -42 l25 0 0
-129 c0 -143 5 -155 62 -149 25 2 33 8 33 23 0 13 -8 21 -22 23 -22 3 -23 7
-23 118 l0 114 25 0 c37 0 35 38 -2 42 -25 3 -28 7 -31 46 -3 33 -7 42 -22 42
-15 0 -19 -9 -22 -42z"/>
<path d="M6760 5755 c0 -38 -3 -45 -20 -45 -13 0 -20 -7 -20 -20 0 -13 7 -20
20 -20 19 0 20 -7 20 -124 0 -140 7 -156 66 -156 29 0 34 3 34 24 0 18 -6 25
-22 28 -22 3 -23 7 -26 116 l-3 112 26 0 c18 0 25 5 25 20 0 15 -7 20 -25 20
-23 0 -25 4 -25 45 0 41 -2 45 -25 45 -23 0 -25 -4 -25 -45z"/>
<path d="M8150 5755 c0 -41 -2 -45 -25 -45 -18 0 -25 -5 -25 -20 0 -15 7 -20
25 -20 l25 0 0 -128 c0 -86 4 -132 12 -140 7 -7 29 -12 50 -12 34 0 38 3 38
25 0 20 -5 25 -25 25 l-25 0 0 115 0 115 25 0 c18 0 25 5 25 20 0 15 -7 20
-25 20 -23 0 -25 4 -25 45 0 41 -2 45 -25 45 -23 0 -25 -4 -25 -45z"/>
<path d="M3202 5697 c-29 -30 -30 -77 -2 -77 13 0 22 9 26 25 7 27 34 40 65
30 16 -5 20 -14 17 -42 -3 -32 -7 -37 -53 -55 -27 -10 -58 -28 -67 -40 -25
-28 -24 -109 0 -131 23 -21 81 -22 109 -2 18 13 22 13 33 0 18 -22 60 -19 60
4 0 10 -7 21 -15 25 -12 4 -15 28 -15 126 0 107 -2 122 -20 140 -30 30 -109
28 -138 -3z m92 -248 c-25 -28 -62 -25 -70 5 -10 41 -1 59 41 83 l40 22 3 -45
c2 -33 -2 -52 -14 -65z"/>
<path d="M3755 5696 c-63 -64 -54 -259 14 -296 22 -11 90 -14 116 -4 32 13 55
79 55 159 0 117 -35 165 -118 165 -32 0 -49 -6 -67 -24z m111 -37 c19 -21 32
-126 20 -173 -14 -56 -73 -76 -100 -33 -21 33 -28 95 -17 151 13 73 58 98 97
55z"/>
<path d="M4086 5699 c-21 -17 -26 -18 -26 -5 0 10 -9 16 -25 16 l-26 0 3 -157
c3 -155 3 -158 26 -161 22 -3 22 -2 22 105 0 124 10 154 58 168 24 7 32 15 32
32 0 29 -28 30 -64 2z"/>
<path d="M4210 5700 c-26 -26 -27 -80 -2 -80 10 0 22 12 29 30 19 52 83 36 83
-20 0 -23 -9 -31 -62 -56 -43 -20 -67 -38 -76 -57 -16 -33 -9 -89 14 -112 19
-19 84 -20 109 -1 16 11 21 11 33 0 7 -8 22 -14 33 -14 26 0 37 30 16 42 -14
7 -17 27 -17 122 0 99 -3 117 -21 140 -17 22 -28 26 -70 26 -36 0 -54 -5 -69
-20z m95 -246 c-20 -31 -62 -33 -74 -2 -15 40 -1 69 43 88 l41 17 3 -39 c2
-24 -3 -49 -13 -64z"/>
<path d="M4644 5702 c-38 -30 -48 -63 -48 -147 1 -125 30 -165 119 -165 83 0
111 53 103 196 -3 71 -6 78 -36 105 -38 34 -103 40 -138 11z m93 -30 c32 -20
46 -161 20 -212 -15 -31 -67 -39 -87 -15 -33 39 -28 197 7 222 19 15 42 16 60
5z"/>
<path d="M4967 5700 c-22 -18 -27 -19 -27 -6 0 10 -9 16 -25 16 l-26 0 3 -157
c3 -153 4 -158 24 -161 21 -3 22 1 25 118 4 114 6 123 28 141 13 10 34 19 48
19 20 0 24 4 21 23 -4 30 -37 33 -71 7z"/>
<path d="M5521 5704 c-34 -24 -51 -74 -51 -148 0 -117 34 -166 115 -166 41 0
56 5 74 24 57 61 54 239 -6 286 -32 25 -99 27 -132 4z m98 -43 c36 -36 39
-156 5 -208 -18 -29 -55 -30 -80 -2 -16 17 -19 37 -19 106 0 77 2 87 24 104
29 24 46 24 70 0z"/>
<path d="M6521 5703 c-12 -10 -23 -31 -24 -48 -2 -24 2 -31 21 -33 16 -3 22 2
22 16 0 48 74 54 86 7 8 -34 0 -43 -66 -72 -62 -27 -80 -51 -80 -108 0 -47 29
-75 77 -75 20 0 45 8 56 17 18 17 19 17 28 0 14 -25 59 -23 59 3 0 11 -4 20
-10 20 -6 0 -10 47 -10 120 0 115 -1 122 -25 145 -30 31 -101 35 -134 8z m109
-172 c0 -81 -61 -135 -90 -80 -18 33 -4 67 38 88 49 26 52 26 52 -8z"/>
<path d="M7222 5697 c-44 -46 -56 -171 -26 -247 19 -47 38 -60 88 -60 48 0 65
8 81 41 23 44 20 69 -10 69 -19 0 -25 -5 -25 -23 0 -29 -18 -47 -46 -47 -30 0
-46 22 -52 75 l-5 45 77 0 76 0 0 54 c0 44 -5 60 -26 85 -34 40 -98 44 -132 8z
m92 -39 c9 -12 16 -33 16 -45 0 -21 -5 -23 -50 -23 -54 0 -61 10 -39 53 23 43
50 48 73 15z"/>
<path d="M7522 5704 c-12 -8 -22 -10 -22 -5 0 6 -11 11 -25 11 l-25 0 0 -160
0 -160 25 0 25 0 0 125 c0 112 2 127 20 145 23 23 53 26 68 7 7 -8 13 -68 14
-143 3 -123 4 -129 24 -132 21 -3 22 1 25 123 4 119 5 128 28 146 30 24 57 24
71 0 5 -11 10 -76 10 -145 l0 -126 25 0 25 0 0 143 c0 137 -1 144 -23 165 -30
28 -85 29 -119 2 -25 -19 -26 -19 -43 0 -22 24 -72 26 -103 4z"/>
<path d="M7900 5700 c-26 -26 -27 -80 -2 -80 10 0 22 12 29 30 20 54 88 33 81
-25 -2 -22 -13 -31 -58 -49 -42 -17 -59 -30 -72 -55 -19 -38 -15 -85 10 -113
21 -24 86 -24 111 1 18 18 18 18 30 0 15 -26 61 -25 61 0 0 10 -7 21 -15 25
-12 4 -15 28 -15 124 0 105 -2 121 -20 140 -28 30 -111 31 -140 2z m95 -246
c-12 -19 -23 -24 -43 -22 -24 3 -27 7 -27 43 0 36 4 42 40 62 l40 22 3 -40 c2
-25 -3 -50 -13 -65z"/>
<path d="M8451 5699 c-33 -31 -41 -61 -41 -152 0 -125 31 -163 125 -155 43 3
69 32 80 86 6 29 4 32 -18 32 -20 0 -27 -6 -32 -29 -8 -37 -27 -53 -57 -49
-32 4 -48 43 -48 114 0 79 15 122 46 130 29 7 50 -8 58 -41 4 -16 13 -25 26
-25 30 0 27 54 -5 85 -32 33 -101 35 -134 4z"/>
<path d="M8685 5695 c-18 -17 -25 -35 -25 -63 0 -46 18 -66 93 -102 37 -18 53
-32 55 -48 5 -31 -15 -52 -47 -52 -31 0 -51 16 -51 42 0 13 -8 18 -25 18 -32
0 -34 -36 -4 -74 17 -22 28 -26 73 -26 61 0 90 17 106 64 18 55 0 82 -75 117
-63 30 -81 51 -69 82 14 38 78 32 88 -8 10 -38 46 -34 46 4 0 67 -114 98 -165
46z"/>
<path d="M9255 5696 c-63 -64 -54 -259 14 -296 11 -5 40 -10 66 -10 83 0 111
53 103 196 -3 71 -6 78 -36 105 -43 39 -111 41 -147 5z m111 -37 c16 -17 19
-37 19 -111 0 -77 -3 -92 -19 -104 -26 -18 -60 -18 -76 2 -20 23 -29 103 -19
159 13 73 56 97 95 54z"/>
<path d="M9586 5699 c-21 -17 -26 -18 -26 -5 0 10 -9 16 -25 16 l-26 0 3 -157
c3 -153 4 -158 24 -161 21 -3 22 1 25 118 4 114 6 123 28 141 13 10 32 19 42
19 14 0 19 7 19 25 0 32 -27 33 -64 4z"/>
<path d="M10322 5704 c-37 -26 -52 -67 -52 -144 0 -75 18 -134 48 -156 9 -7
39 -14 65 -14 57 0 89 26 106 86 23 81 7 179 -34 220 -29 29 -98 33 -133 8z
m92 -37 c22 -16 39 -99 30 -152 -8 -55 -29 -85 -59 -85 -49 0 -71 54 -63 155
7 80 46 115 92 82z"/>
<path d="M10718 5691 c-30 -27 -33 -34 -36 -105 -8 -143 20 -196 103 -196 90
0 119 41 119 165 0 122 -30 165 -113 165 -31 0 -49 -7 -73 -29z m105 -23 c35
-27 41 -182 7 -222 -16 -20 -54 -20 -74 0 -23 22 -29 55 -24 129 5 89 44 128
91 93z"/>
<path d="M10995 5694 c-30 -33 -38 -73 -33 -168 4 -97 26 -130 88 -134 29 -2
48 2 61 14 10 9 19 12 19 6 0 -19 -21 -66 -33 -74 -22 -14 -57 -8 -69 12 -17
26 -58 27 -58 1 0 -54 111 -82 163 -41 38 30 47 77 47 248 l0 152 -25 0 c-14
0 -25 -5 -25 -11 0 -5 -10 -3 -22 5 -35 25 -85 20 -113 -10z m104 -33 c37 -37
39 -156 5 -209 -11 -17 -23 -22 -42 -20 -40 5 -53 40 -50 131 3 69 6 81 27 98
29 24 36 24 60 0z"/>
<path d="M11660 5700 c-26 -26 -27 -80 -2 -80 10 0 22 12 29 30 20 54 88 33
81 -25 -2 -22 -13 -31 -58 -49 -42 -17 -59 -30 -73 -56 -19 -39 -15 -83 11
-112 21 -24 86 -24 111 1 18 18 18 18 30 0 15 -26 61 -25 61 0 0 10 -7 21 -15
25 -12 4 -15 28 -15 124 0 105 -2 121 -20 140 -28 30 -111 31 -140 2z m95
-246 c-12 -19 -23 -24 -43 -22 -24 3 -27 7 -27 43 0 36 4 42 40 62 l40 22 3
-40 c2 -25 -3 -50 -13 -65z"/>
<path d="M11972 5704 c-12 -8 -22 -10 -22 -5 0 6 -11 11 -25 11 l-25 0 0 -160
0 -160 25 0 25 0 0 123 c0 110 2 126 20 145 22 23 46 28 70 12 12 -7 16 -38
18 -145 3 -133 4 -136 25 -133 21 3 22 7 22 144 0 126 -2 144 -19 163 -23 25
-81 28 -114 5z"/>
<path d="M13075 5696 c-58 -59 -61 -222 -3 -283 50 -53 158 -15 158 57 0 42
-32 41 -51 -2 -11 -27 -20 -33 -44 -33 -27 0 -32 5 -44 43 -20 66 -14 72 75
72 l77 0 -7 31 c-3 17 -6 44 -6 59 0 15 -11 39 -25 54 -33 35 -95 37 -130 2z
m89 -32 c9 -8 16 -29 16 -45 0 -28 -1 -29 -51 -29 -43 0 -50 3 -45 16 3 9 6
22 6 29 0 18 28 45 45 45 7 0 21 -7 29 -16z"/>
<path d="M13747 5709 c-62 -36 -76 -223 -20 -289 20 -25 32 -30 68 -30 24 0
51 3 60 6 20 8 45 56 45 89 0 20 -5 25 -25 25 -19 0 -25 -5 -25 -21 0 -59 -55
-80 -87 -33 -18 28 -23 126 -10 176 15 56 83 61 94 7 4 -22 11 -29 29 -29 33
0 32 39 -2 79 -21 26 -33 31 -67 31 -23 0 -50 -5 -60 -11z"/>
<path d="M14157 5703 c-11 -11 -17 -13 -17 -5 0 7 -11 12 -25 12 l-25 0 0
-161 0 -160 23 3 c21 3 22 8 27 131 4 112 7 130 24 143 25 18 50 18 64 1 7 -8
13 -68 14 -143 3 -125 4 -129 26 -132 22 -3 22 -3 22 142 0 133 -2 148 -20
166 -25 25 -89 27 -113 3z"/>
<path d="M14407 5709 c-62 -36 -76 -223 -20 -289 51 -61 163 -27 163 50 0 41
-30 40 -50 -3 -11 -22 -23 -33 -42 -35 -32 -4 -45 16 -50 74 l-3 39 73 3 72 3
0 60 c0 50 -4 64 -25 84 -26 27 -84 34 -118 14z m71 -38 c7 -4 17 -24 22 -45
l8 -36 -49 0 c-46 0 -49 1 -49 27 0 27 25 63 44 63 6 0 17 -4 24 -9z"/>
<path d="M5050 5708 c0 -2 22 -75 50 -163 43 -139 48 -162 37 -184 -10 -20
-20 -26 -45 -26 -27 0 -32 -4 -32 -23 0 -21 4 -23 42 -20 30 2 46 10 59 28 15
20 129 360 129 384 0 3 -11 6 -25 6 -26 0 -30 -8 -70 -167 -11 -40 -21 -73
-25 -73 -3 0 -19 53 -36 118 -29 110 -32 117 -57 120 -15 2 -27 2 -27 0z"/>
<path d="M8300 5549 l0 -160 23 3 c22 3 22 6 25 161 l3 157 -26 0 -25 0 0
-161z"/>
<path d="M10152 5553 c3 -155 3 -158 26 -161 l22 -3 0 160 0 161 -25 0 -26 0
3 -157z"/>
<path d="M11222 5693 c3 -10 25 -82 48 -161 35 -115 42 -147 34 -170 -8 -22
-16 -27 -42 -27 -27 0 -32 -4 -32 -22 0 -20 5 -23 38 -23 26 0 45 7 56 19 13
14 135 374 136 399 0 2 -12 2 -27 0 -26 -3 -30 -9 -49 -83 -12 -44 -27 -100
-34 -125 l-13 -45 -27 100 c-15 55 -30 112 -34 128 -5 21 -12 27 -32 27 -20 0
-25 -4 -22 -17z"/>
<path d="M13582 5553 c3 -155 3 -158 26 -161 l22 -3 0 160 0 161 -25 0 -26 0
3 -157z"/>
<path d="M13960 5550 l0 -160 25 0 25 0 0 160 0 160 -25 0 -25 0 0 -160z"/>
</g>
</svg>
