<?xml version="1.0" standalone="no"?>
<!DOCTYPE svg PUBLIC "-//W3C//DTD SVG 20010904//EN"
 "http://www.w3.org/TR/2001/REC-SVG-20010904/DTD/svg10.dtd">
<svg version="1.0" xmlns="http://www.w3.org/2000/svg"
 width="1024.000000pt" height="1024.000000pt" viewBox="0 0 1024.000000 1024.000000"
 preserveAspectRatio="xMidYMid meet">
<metadata>
Created by potrace 1.14, written by Peter Selinger 2001-2017
</metadata>
<g transform="translate(0.000000,1024.000000) scale(0.100000,-0.100000)"
fill="#000000" stroke="none">
<path d="M6182 9431 c-27 -7 -141 -117 -143 -137 -1 -8 -1 -21 -1 -29 0 -45 6
-58 47 -99 25 -25 45 -49 45 -54 0 -5 -30 -38 -67 -73 -37 -35 -66 -67 -65
-71 1 -5 -2 -8 -7 -8 -12 0 -136 -129 -136 -141 0 -8 105 -117 233 -243 l50
-49 147 147 147 147 42 -44 c51 -54 101 -72 143 -51 15 8 52 40 81 70 44 47
52 62 52 94 0 24 -8 48 -22 66 -48 61 -458 463 -480 470 -32 11 -40 11 -66 5z"/>
<path d="M5453 8833 c-20 -8 -234 -215 -542 -522 -527 -527 -532 -533 -533
-614 -1 -69 14 -99 91 -180 70 -74 408 -410 434 -432 40 -34 101 -45 177 -31
43 8 70 34 557 520 405 403 516 520 529 553 9 23 14 48 11 56 -3 8 -2 19 2 26
8 13 -4 58 -28 101 -18 33 -485 500 -500 500 -6 0 -11 4 -11 8 0 14 -76 33
-118 31 -20 -2 -52 -9 -69 -16z"/>
<path d="M6344 8023 c-16 -32 -37 -66 -46 -75 -10 -10 -16 -18 -14 -18 2 0
-26 -29 -62 -65 -37 -36 -70 -65 -75 -65 -4 0 -7 -3 -5 -7 2 -5 -18 -29 -44
-55 -26 -26 -48 -45 -48 -43 0 3 -18 -15 -40 -39 -40 -43 -50 -66 -29 -66 28
0 221 -165 292 -251 126 -151 243 -386 262 -527 3 -18 9 -41 13 -50 4 -9 8
-34 7 -54 0 -21 2 -38 5 -38 4 0 5 -57 4 -127 -4 -168 -7 -213 -15 -213 -3 0
-5 -11 -4 -25 2 -14 -1 -25 -6 -25 -6 0 -8 -4 -5 -9 5 -8 -16 -95 -33 -136 -5
-11 -19 -46 -31 -77 -20 -53 -114 -226 -129 -238 -3 -3 -22 -25 -41 -50 -56
-74 -131 -148 -200 -201 -36 -27 -72 -54 -80 -61 -32 -28 -229 -128 -252 -128
-10 0 -18 -5 -18 -12 0 -6 -2 -9 -5 -6 -3 3 -33 -3 -66 -13 -34 -11 -75 -22
-92 -25 -18 -3 -39 -7 -47 -9 -84 -17 -245 -22 -345 -12 -63 7 -71 9 -150 27
-27 6 -61 14 -75 16 -13 3 -30 10 -37 15 -7 6 -17 8 -23 4 -5 -3 -10 -1 -10 4
0 6 -9 11 -19 11 -11 0 -23 5 -26 10 -4 6 -11 8 -16 5 -5 -4 -9 -1 -9 5 0 6
-4 8 -10 5 -5 -3 -10 -1 -10 4 0 6 -7 11 -16 11 -17 0 -107 50 -112 62 -2 5
-8 6 -13 2 -5 -3 -12 2 -15 10 -3 9 -10 16 -15 16 -18 0 -104 68 -185 148
l-54 52 -365 0 c-211 0 -365 -4 -365 -9 0 -13 44 -95 53 -99 4 -2 7 -9 7 -15
0 -9 85 -142 100 -157 3 -3 23 -27 45 -55 21 -27 43 -53 48 -56 15 -11 -2 -28
-23 -24 -39 7 -146 -16 -206 -45 -108 -53 -189 -156 -217 -276 -17 -73 -15
-221 3 -250 33 -53 -60 -50 1855 -50 1698 1 1782 2 1808 19 16 10 33 30 38 45
16 43 8 209 -13 272 -55 164 -203 276 -375 285 -80 5 -76 3 -60 25 8 11 28 36
45 54 17 19 28 37 25 40 -4 3 -2 6 4 6 6 0 30 30 54 66 24 37 49 73 57 80 7 8
10 14 6 14 -4 0 0 8 9 18 10 10 14 22 10 25 -3 4 -2 7 3 7 6 0 16 16 24 35 8
19 18 35 22 35 5 0 6 5 3 10 -3 6 -1 10 4 10 6 0 10 3 9 8 -1 4 6 25 16 47 57
128 118 318 133 409 26 166 30 229 27 391 -2 99 -5 191 -8 205 -2 14 -7 43
-11 65 -22 144 -83 334 -159 498 -20 42 -36 80 -35 83 0 4 -3 10 -8 13 -5 3
-20 25 -33 49 -13 23 -27 42 -32 42 -4 0 -7 3 -6 8 3 10 -65 112 -74 112 -5 0
-8 6 -8 14 0 8 -3 16 -7 18 -5 2 -33 32 -63 68 -30 35 -74 82 -96 105 -81 78
-121 115 -127 115 -3 0 -17 10 -30 23 -38 36 -67 57 -67 49 0 -4 -4 -2 -8 3
-4 6 -14 16 -24 23 -14 11 -19 6 -44 -45z"/>
<path d="M4244 7350 c-48 -50 -61 -83 -49 -128 8 -33 322 -346 361 -359 40
-14 77 1 134 55 l43 41 -221 221 -220 220 -48 -50z"/>
<path d="M3131 6429 c-66 -14 -84 -54 -78 -175 6 -134 18 -171 79 -234 52 -54
69 -64 133 -85 56 -17 99 -19 600 -19 297 -1 559 2 583 6 51 9 112 36 129 58
7 8 13 11 13 7 0 -5 12 6 28 25 15 18 33 40 41 50 8 9 16 23 18 30 1 7 9 36
17 63 19 71 15 203 -9 238 -10 15 -20 25 -23 22 -3 -2 -12 1 -20 7 -10 9 -195
12 -747 13 -404 0 -748 -3 -764 -6z"/>
<path d="M2498 3988 c-110 -19 -245 -121 -361 -272 -113 -146 -145 -209 -116
-227 17 -10 27 -8 156 42 127 49 251 79 325 79 54 0 58 -2 65 -27 10 -37 10
-415 0 -530 -15 -181 -34 -253 -108 -408 -130 -274 -125 -383 23 -494 9 -7 40
-19 68 -26 43 -11 57 -11 94 1 92 31 165 128 202 269 24 88 24 279 -1 1093
l-3 112 26 1 c127 2 283 -1 291 -6 6 -3 8 -11 6 -18 -13 -40 -29 -377 -29
-617 0 -468 35 -634 160 -756 153 -148 424 -131 594 36 58 56 84 100 102 170
23 91 9 188 -35 241 -22 27 -67 48 -67 32 -6 -97 -12 -127 -30 -153 -70 -98
-208 -133 -289 -73 -71 54 -129 181 -148 328 -18 143 -3 450 32 675 12 77 24
132 28 136 2 2 91 5 198 6 222 4 251 11 297 81 21 31 27 53 28 105 4 103 -33
169 -105 193 -41 14 -1326 20 -1403 7z"/>
<path d="M6702 3984 c-91 -22 -150 -58 -243 -145 -85 -81 -201 -239 -228 -311
-9 -23 -7 -29 9 -38 15 -8 40 -3 112 26 101 39 196 71 237 80 54 11 178 16
184 8 17 -29 26 -370 12 -514 -18 -202 -35 -279 -89 -398 -24 -53 -56 -123
-70 -155 -83 -185 -50 -323 96 -398 21 -11 58 -19 85 -19 115 0 208 102 254
277 21 81 25 227 15 483 -3 58 -7 240 -11 405 -3 164 -9 303 -11 307 -5 7 29
9 171 9 30 0 78 0 105 0 l51 -1 -5 -47 c-5 -46 -14 -160 -21 -288 -6 -90 -6
-543 0 -600 3 -27 7 -63 9 -80 3 -16 8 -54 11 -83 3 -29 10 -64 15 -78 5 -13
8 -24 5 -24 -9 0 47 -114 73 -148 67 -90 164 -141 276 -147 297 -15 537 236
461 479 -18 56 -65 111 -89 103 -6 -2 -14 -33 -17 -69 -7 -83 -39 -127 -121
-167 -88 -42 -155 -32 -224 34 -47 45 -98 167 -109 263 -3 26 -7 58 -10 72 -7
31 -7 285 0 360 13 150 52 401 65 414 4 4 89 8 187 8 195 0 236 8 284 54 84
80 65 259 -33 314 l-43 24 -673 1 c-464 0 -688 -3 -720 -11z"/>
<path d="M4440 3950 l-35 -5 0 -60 0 -60 80 -6 c97 -7 120 -20 143 -79 15 -41
17 -103 17 -706 0 -622 -1 -663 -19 -701 -23 -51 -52 -64 -148 -67 l-73 -2 0
-67 -1 -68 492 2 c376 1 511 4 571 15 348 63 497 216 489 499 -6 189 -93 312
-283 401 -39 19 -78 34 -87 34 -23 0 -30 19 -9 26 61 20 164 79 202 116 74 74
101 148 101 278 0 73 -4 95 -29 161 -42 111 -136 188 -288 238 -83 27 -110 32
-240 47 -65 8 -834 11 -883 4z m861 -175 c112 -38 155 -132 147 -322 -9 -215
-76 -280 -295 -289 -93 -3 -103 -2 -103 14 -1 30 -1 504 -1 564 l1 58 100 -4
c55 -3 123 -12 151 -21z m19 -780 c24 -4 61 -18 81 -30 91 -58 123 -139 123
-315 1 -153 -11 -209 -56 -269 -52 -69 -118 -90 -302 -95 l-116 -3 0 71 c-1
39 -2 200 -3 358 -1 159 2 289 7 291 17 6 223 0 266 -8z"/>
<path d="M3430 1726 c0 -19 7 -26 30 -31 56 -12 58 -23 56 -323 -1 -296 1
-286 -58 -299 -21 -4 -28 -11 -28 -29 0 -24 1 -24 100 -24 l100 0 15 38 16 39
35 -33 c43 -41 102 -58 168 -49 120 16 175 91 180 248 3 72 -10 141 -34 187
-52 102 -225 126 -311 44 l-27 -26 4 139 3 140 -124 2 -125 2 0 -25z m431
-309 c18 -43 19 -50 20 -137 2 -138 -35 -203 -109 -194 -68 9 -92 57 -92 192
-1 135 19 180 86 191 48 9 77 -7 95 -52z"/>
<path d="M2124 1701 c-2 -2 -4 -15 -4 -28 0 -20 5 -23 40 -23 29 0 42 -5 50
-20 7 -14 10 -108 8 -281 -3 -285 -2 -279 -65 -279 -28 0 -33 -3 -33 -25 l0
-25 310 0 310 0 1 58 c0 31 2 78 3 105 1 26 0 47 -3 48 -3 0 -16 2 -28 5 -18
3 -24 -4 -39 -54 -27 -91 -43 -102 -149 -103 -50 -1 -101 -1 -115 0 l-25 1 0
263 c1 144 5 272 9 285 7 21 28 27 77 23 11 -1 16 6 14 26 l-1 28 -178 0 c-97
0 -179 -1 -182 -4z"/>
<path d="M6070 1635 c0 -44 -76 -115 -124 -115 -17 0 -22 -6 -22 -25 0 -22 5
-25 32 -25 18 0 36 -5 39 -10 4 -6 8 -88 9 -183 3 -184 8 -208 54 -242 32 -23
143 -30 211 -13 39 10 42 13 39 41 -3 31 -4 31 -54 28 -54 -2 -82 13 -86 47
-4 49 -6 299 -1 315 3 14 16 17 69 17 l64 0 0 30 c0 17 -5 30 -12 31 -7 0 -38
1 -68 2 l-55 2 0 58 0 57 -47 0 c-36 0 -48 -4 -48 -15z"/>
<path d="M3003 1539 c-115 -15 -177 -105 -95 -138 37 -14 102 -23 103 -13 7
71 43 109 93 96 32 -8 48 -49 44 -109 l-3 -48 -64 -3 c-108 -5 -170 -22 -209
-58 -30 -28 -36 -40 -40 -88 -8 -98 43 -156 147 -165 61 -6 103 8 149 50 24
22 37 16 44 -18 3 -18 12 -20 106 -23 l102 -3 0 26 c0 18 -5 25 -18 25 -11 0
-26 8 -35 18 -14 16 -17 44 -17 176 0 173 -8 209 -56 243 -47 34 -147 46 -251
32z m147 -318 c0 -71 -16 -107 -57 -126 -44 -21 -81 -13 -94 22 -14 36 -3 103
19 126 17 17 107 38 125 30 4 -2 7 -26 7 -52z"/>
<path d="M4327 1534 c-126 -32 -180 -111 -179 -259 1 -111 35 -180 109 -226
44 -27 74 -33 168 -33 118 0 185 32 233 114 23 39 26 55 27 135 0 103 -3 118
-32 167 -54 91 -195 135 -326 102z m176 -107 c20 -40 30 -159 20 -235 -13 -94
-82 -143 -149 -107 -45 24 -63 82 -63 199 1 129 22 178 83 195 46 12 87 -8
109 -52z"/>
<path d="M5100 1539 c-22 -5 -47 -21 -67 -45 l-33 -37 -6 32 c-10 46 -1 44
-166 42 -55 -1 -58 -2 -58 -26 0 -20 5 -25 24 -25 45 0 51 -21 53 -188 2 -189
-7 -221 -64 -222 -18 0 -23 -6 -23 -25 l0 -25 178 0 178 0 0 25 c0 20 -5 25
-25 25 -44 0 -70 11 -77 32 -3 11 -6 74 -5 140 0 94 4 128 18 156 34 70 101
73 113 6 3 -15 7 -28 10 -28 58 3 92 17 109 45 19 32 19 72 0 96 -18 21 -106
34 -159 22z"/>
<path d="M5490 1538 c-68 -12 -99 -28 -116 -60 -27 -53 3 -84 90 -90 35 -3 39
0 42 22 9 59 47 90 91 73 31 -12 41 -35 39 -97 l-1 -60 -65 -3 c-167 -7 -239
-48 -247 -139 -12 -118 73 -189 203 -169 32 4 57 17 84 41 l38 35 12 -36 12
-35 99 0 c99 0 99 0 99 25 0 18 -5 25 -19 25 -42 0 -51 34 -51 198 0 169 -9
205 -56 239 -49 34 -159 48 -254 31z m133 -405 c-26 -41 -44 -51 -81 -48 -47
4 -57 18 -56 79 0 70 23 96 96 105 l53 6 3 -57 c2 -42 -2 -65 -15 -85z"/>
<path d="M6569 1535 c-30 -6 -69 -19 -87 -30 -71 -43 -109 -139 -99 -253 9
-112 44 -169 128 -213 36 -19 60 -23 139 -23 106 -1 151 13 207 67 79 75 89
271 18 366 -59 82 -173 113 -306 86z m153 -82 c45 -41 52 -267 10 -335 -18
-29 -31 -38 -63 -43 -82 -14 -120 42 -124 180 -4 143 24 217 86 227 29 5 68
-8 91 -29z"/>
<path d="M7330 1538 c-20 -5 -48 -24 -66 -45 l-31 -36 -7 36 -7 35 -67 4 c-37
2 -86 2 -109 0 -38 -3 -43 -6 -43 -28 0 -19 5 -24 24 -24 51 0 56 -17 56 -201
0 -156 -2 -171 -20 -189 -11 -11 -31 -20 -44 -20 -18 0 -23 -5 -22 -22 1 -23
2 -23 179 -26 l177 -2 0 25 c0 22 -4 25 -33 25 -18 0 -43 7 -56 16 -23 16 -23
19 -20 158 4 128 6 144 27 174 19 25 30 32 57 32 29 0 36 -4 42 -27 4 -16 7
-32 8 -38 0 -14 66 -6 93 11 49 32 54 100 9 128 -30 18 -104 26 -147 14z"/>
<path d="M7532 1530 c-4 -3 -8 -15 -8 -27 -1 -17 6 -24 28 -29 26 -5 35 -17
65 -83 19 -42 45 -101 59 -131 120 -264 112 -241 96 -282 -30 -77 -104 -128
-184 -128 -16 0 -28 -3 -29 -7 0 -5 -2 -19 -5 -32 l-4 -24 79 6 c43 3 94 12
113 20 55 23 99 85 152 214 26 65 54 132 61 148 13 29 58 139 74 180 29 76 55
115 83 124 20 7 28 16 26 28 -4 24 -32 29 -143 25 -83 -3 -94 -5 -98 -23 -6
-21 -2 -23 44 -33 29 -6 43 -42 27 -70 -5 -9 -11 -24 -13 -34 -2 -9 -22 -63
-43 -120 l-38 -102 -34 87 c-18 49 -43 111 -56 140 -13 28 -24 58 -24 66 0 18
18 34 44 38 11 2 21 14 22 27 3 18 -1 22 -24 22 -15 1 -80 2 -145 3 -66 1
-122 0 -125 -3z"/>
</g>
</svg>
