<?xml version="1.0" standalone="no"?>
<!DOCTYPE svg PUBLIC "-//W3C//DTD SVG 20010904//EN"
 "http://www.w3.org/TR/2001/REC-SVG-20010904/DTD/svg10.dtd">
<svg version="1.0" xmlns="http://www.w3.org/2000/svg"
 width="1638.000000pt" height="1638.000000pt" viewBox="0 0 1638.000000 1638.000000"
 preserveAspectRatio="xMidYMid meet">
<metadata>
Created by potrace 1.14, written by Peter Selinger 2001-2017
</metadata>
<g transform="translate(0.000000,1638.000000) scale(0.100000,-0.100000)"
fill="#000000" stroke="none">
<path d="M2966 13175 c-10 -44 -20 -83 -23 -88 -2 -4 -16 1 -31 12 -36 24
-112 63 -112 56 0 -3 18 -34 40 -68 46 -73 44 -77 -50 -97 -33 -7 -58 -16 -55
-20 2 -4 31 -13 63 -20 90 -19 90 -18 42 -94 -23 -37 -41 -69 -39 -70 2 -2 33
13 68 35 35 21 67 36 72 34 4 -3 15 -39 25 -80 10 -41 21 -72 24 -68 4 5 13
36 20 69 19 93 19 93 95 46 36 -23 68 -42 70 -42 2 0 -14 31 -36 69 -21 37
-39 70 -39 73 0 3 28 13 63 23 34 9 69 20 77 22 8 3 -19 14 -60 25 -41 11 -77
21 -79 23 -2 2 13 34 33 70 20 36 36 68 36 71 0 3 -16 -4 -35 -15 -19 -12 -51
-30 -69 -41 l-35 -21 -11 43 c-6 24 -17 63 -23 88 l-12 44 -19 -79z"/>
<path d="M5580 8750 c0 -3993 2 -4500 15 -4500 13 0 15 507 15 4500 0 3993 -2
4500 -15 4500 -13 0 -15 -507 -15 -4500z"/>
<path d="M2365 13115 c-90 -24 -129 -97 -88 -165 19 -33 53 -52 137 -77 62
-19 90 -45 102 -95 5 -22 0 -33 -24 -58 -45 -45 -101 -40 -159 13 -28 25 -29
13 -3 -30 17 -29 25 -33 60 -33 54 0 100 20 133 59 32 39 35 83 7 128 -22 37
-51 54 -134 77 -99 29 -134 89 -81 141 31 32 93 34 120 5 28 -31 36 -24 18 15
-19 39 -18 39 -88 20z"/>
<path d="M3623 13113 c-7 -3 -62 -73 -123 -156 -61 -84 -117 -160 -124 -170
-8 -10 -26 -21 -41 -25 -23 -7 -19 -9 37 -24 62 -17 62 -17 39 1 l-25 19 43
66 c47 72 38 69 136 42 l40 -12 9 -66 c10 -77 5 -98 -26 -99 -21 -1 10 -11 96
-33 l30 -7 -23 18 c-20 17 -23 32 -36 203 -20 256 -18 247 -32 243z m-20 -145
c4 -45 5 -84 2 -86 -6 -6 -115 17 -115 24 0 9 95 144 101 144 3 0 9 -37 12
-82z"/>
<path d="M3846 13015 c-24 -31 -25 -35 -8 -26 29 16 68 14 105 -5 61 -31 61
-25 -15 -177 -94 -189 -103 -201 -141 -193 -40 8 -36 5 53 -39 54 -27 70 -32
58 -18 -10 11 -18 27 -18 37 0 14 151 320 165 334 7 8 106 -52 116 -70 6 -10
7 -28 4 -38 -10 -31 0 -24 29 20 25 38 25 40 6 40 -26 0 -317 145 -322 161 -2
6 -17 -5 -32 -26z"/>
<path d="M1947 12940 c-3 -12 -2 -47 3 -78 5 -32 16 -121 25 -200 15 -132 15
-145 0 -168 l-16 -25 53 27 c66 33 67 34 32 31 -26 -2 -29 1 -36 43 -4 25 -10
60 -13 77 -6 32 -4 34 60 65 l65 32 50 -49 c47 -46 64 -85 38 -85 -6 0 -9 -3
-6 -6 5 -5 128 52 128 59 0 2 -13 2 -28 -1 -29 -4 -67 28 -293 246 -52 49 -57
52 -62 32z m143 -182 c0 -4 -22 -19 -49 -33 -58 -29 -57 -30 -67 82 l-6 78 61
-60 c33 -33 61 -63 61 -67z"/>
<path d="M1717 12827 c-8 -21 -255 -217 -272 -217 -19 0 -19 1 5 -51 l20 -44
0 42 c0 37 5 46 47 82 l48 41 21 -23 c50 -51 224 -271 224 -283 0 -6 -7 -17
-15 -24 -8 -7 -15 -16 -15 -21 0 -5 29 14 64 43 63 52 77 70 38 49 -16 -8 -24
-7 -40 7 -15 14 -150 175 -221 265 -13 16 -11 21 20 47 55 47 84 56 115 35
l26 -17 -18 32 c-25 42 -40 54 -47 37z"/>
<path d="M4328 12780 c30 -33 15 -57 -156 -248 -57 -64 -69 -73 -93 -70 -27 4
-26 2 24 -43 50 -46 83 -66 57 -34 -19 23 -5 55 52 118 l53 59 90 -76 c50 -42
92 -81 93 -87 2 -5 -22 -39 -54 -75 -51 -59 -60 -65 -86 -60 -28 5 -28 5 9
-26 21 -18 49 -41 61 -52 l24 -21 -13 27 c-15 34 -11 40 116 187 106 122 121
134 150 119 11 -5 -5 13 -35 40 -52 47 -79 62 -50 27 11 -13 6 -24 -31 -72
-68 -87 -64 -88 -168 2 -50 42 -91 80 -91 82 0 3 23 32 52 65 47 54 54 59 82
54 30 -6 29 -6 -14 31 -50 44 -93 74 -72 53z"/>
<path d="M2845 12584 c-222 -31 -312 -52 -453 -106 -320 -124 -595 -342 -784
-624 -196 -293 -283 -617 -267 -989 20 -434 189 -812 495 -1105 115 -111 188
-166 331 -251 384 -228 850 -287 1297 -164 458 125 866 471 1061 899 91 199
134 391 142 631 6 185 -6 292 -52 476 -155 618 -689 1098 -1350 1214 -87 16
-358 28 -420 19z m-404 -225 c55 -19 89 -57 89 -100 0 -49 -31 -86 -83 -100
-74 -20 -71 -19 -59 -31 7 -7 12 -20 12 -31 0 -10 6 -25 13 -32 6 -8 23 -29
36 -47 25 -34 83 -78 105 -78 7 0 21 -6 31 -14 11 -8 25 -12 31 -9 7 2 28 -2
46 -10 18 -9 52 -17 76 -19 38 -3 42 -2 42 20 0 13 7 36 15 52 l15 30 -32 -6
-33 -6 35 30 c19 17 43 34 52 37 10 4 15 12 11 21 -3 7 0 14 6 14 11 0 51 57
51 73 0 4 -10 7 -22 8 -13 0 -17 3 -10 6 6 2 12 9 12 14 0 12 -104 79 -123 79
-8 0 -19 12 -26 27 -30 65 81 91 184 42 28 -12 62 -22 77 -20 31 3 73 -17 141
-66 38 -28 48 -42 53 -74 4 -22 11 -42 15 -45 16 -10 9 -24 -12 -24 -17 0 -19
-3 -10 -14 10 -12 8 -15 -11 -18 l-23 -5 24 -10 c16 -6 20 -12 12 -17 -8 -5
-2 -19 20 -47 32 -41 29 -46 -16 -29 -23 9 -26 8 -21 -6 3 -8 6 -28 6 -42 0
-26 2 -27 47 -25 27 0 71 6 98 13 28 6 63 14 79 17 41 8 134 74 157 112 10 17
23 31 29 31 5 0 10 15 10 33 0 18 5 38 12 45 8 8 1 13 -32 18 -123 20 -145
153 -33 200 93 40 225 -11 273 -105 25 -48 30 -145 15 -268 -8 -65 -15 -144
-15 -175 0 -56 1 -58 28 -58 l27 -1 -24 -19 c-13 -11 -31 -20 -41 -20 -27 0
-69 56 -76 101 -4 21 -10 39 -15 39 -17 0 -39 -106 -39 -190 0 -96 14 -130 56
-130 31 0 31 -17 -1 -32 -21 -9 -32 -8 -60 5 -44 21 -69 71 -85 167 -18 117
-21 122 -37 75 -22 -62 -35 -233 -23 -295 15 -77 34 -104 71 -96 26 5 29 3 29
-19 0 -58 -86 -52 -137 9 -18 21 -40 35 -63 39 -19 4 -46 9 -60 13 l-25 7 23
-25 c26 -29 28 -45 5 -70 -20 -23 -33 -23 -33 0 0 9 -9 23 -19 29 -11 7 -26
24 -33 39 -14 29 -27 34 -95 36 -27 1 -43 6 -43 13 0 23 29 37 65 33 41 -5 42
-2 11 36 -20 24 -29 27 -51 22 -25 -6 -27 -5 -23 18 4 18 1 26 -8 26 -8 0 -14
10 -14 23 0 28 -15 51 -28 43 -13 -8 -42 -93 -42 -123 0 -13 6 -32 12 -43 10
-16 10 -24 0 -40 -32 -51 2 -151 68 -199 57 -41 143 -60 179 -40 20 12 26 23
25 46 -1 25 3 33 22 37 12 3 34 1 48 -6 20 -9 26 -19 26 -43 0 -18 -8 -39 -18
-48 -30 -28 -107 -39 -189 -27 -41 5 -79 10 -86 10 -6 0 14 -18 44 -40 64 -49
74 -63 53 -81 -23 -19 -60 5 -109 70 -45 60 -56 54 -25 -14 21 -47 19 -85 -4
-85 -23 0 -39 28 -47 82 -9 56 -15 66 -29 52 -6 -6 -6 -30 2 -66 9 -45 9 -59
-1 -72 -36 -44 -66 1 -56 85 4 37 3 59 -3 59 -13 0 -22 -24 -22 -58 0 -66 -35
-102 -67 -69 -13 12 -12 19 3 53 10 21 21 47 25 56 14 30 -14 10 -44 -33 -35
-48 -68 -72 -91 -63 -31 12 -16 41 40 78 31 21 54 39 52 41 -2 2 -44 -1 -93
-7 -50 -6 -106 -8 -126 -4 -46 8 -89 41 -89 67 0 31 36 59 77 59 35 0 36 0 18
-20 -49 -54 54 -91 156 -55 56 20 94 57 115 111 16 41 16 100 0 135 -4 10 -1
23 10 33 19 20 14 78 -13 134 -15 32 -17 33 -30 16 -7 -10 -13 -28 -13 -41 0
-17 -4 -21 -16 -16 -14 5 -16 2 -10 -22 6 -25 5 -27 -17 -21 -20 5 -30 -1 -51
-28 -28 -38 -34 -55 -12 -37 8 7 32 11 53 9 33 -3 38 -6 38 -27 0 -23 -3 -25
-64 -25 -52 -1 -66 -5 -75 -21 -6 -10 -21 -29 -33 -42 -13 -13 -23 -28 -23
-33 0 -15 -26 -12 -39 4 -13 15 -6 42 17 69 18 21 12 21 -35 2 -19 -8 -43 -15
-53 -15 -9 0 -31 -18 -49 -40 -36 -45 -64 -56 -104 -41 -36 14 -38 51 -3 51
88 0 115 255 45 425 -11 29 -13 26 -26 -60 -24 -159 -84 -243 -154 -215 -16 7
-29 19 -29 27 0 8 5 11 10 8 20 -12 52 8 66 41 19 44 18 147 -2 215 -21 72
-30 79 -38 27 -12 -76 -62 -122 -107 -98 -23 13 -25 30 -4 30 33 0 39 44 20
157 -49 289 -2 424 161 462 54 13 66 13 105 0z m489 -1393 c0 -2 -7 -7 -16
-10 -8 -3 -12 -2 -9 4 6 10 25 14 25 6z m-1318 -62 c10 -21 9 -27 -3 -35 -20
-13 -26 -11 -32 9 -2 9 -8 25 -12 35 -12 29 33 22 47 -9z m88 1 c0 -18 -5 -25
-20 -25 -15 0 -20 7 -20 25 0 18 5 25 20 25 15 0 20 -7 20 -25z m112 -5 c-6
-37 -21 -51 -43 -40 -17 10 -17 12 -1 40 20 36 49 36 44 0z m111 -8 c-10 -16
-30 -44 -46 -63 -22 -28 -29 -31 -37 -19 -5 8 -10 18 -10 22 0 6 99 88 107 88
3 0 -3 -13 -14 -28z m-433 -21 c38 -33 42 -41 31 -55 -11 -13 -18 -9 -52 34
-58 74 -50 82 21 21z m2420 10 c0 -13 -91 -67 -154 -93 -44 -18 -67 -20 -161
-17 -188 6 -242 3 -269 -15 -19 -12 -50 -16 -130 -16 -99 0 -106 -1 -117 -22
-17 -33 -40 -47 -72 -48 -40 0 -29 -24 12 -28 26 -3 39 3 67 33 33 35 35 36
87 30 81 -10 85 -16 48 -66 -36 -51 -114 -107 -164 -118 -22 -6 -45 -4 -64 4
-42 18 -51 35 -19 35 14 0 26 5 26 10 0 6 -8 10 -17 10 -39 0 -76 34 -90 85
-27 91 -27 126 -1 164 13 19 35 38 50 42 15 4 80 1 145 -7 256 -30 538 -26
728 10 91 17 95 18 95 7z m412 -62 c-65 -60 -173 -112 -272 -132 -121 -25
-325 -39 -443 -32 l-107 7 -44 -40 c-45 -41 -94 -61 -156 -63 -32 -1 -33 -2
-10 -9 38 -12 99 -11 123 1 12 6 40 29 63 50 l40 39 70 -10 c102 -15 440 -12
567 6 60 8 111 13 114 10 13 -12 -56 -58 -116 -76 -97 -31 -191 -41 -333 -39
-70 2 -130 0 -133 -3 -3 -3 16 -13 42 -23 34 -12 93 -19 206 -22 86 -3 157 -9
157 -13 0 -4 -24 -18 -52 -31 -50 -22 -68 -24 -283 -29 l-230 -5 103 -29 c56
-16 101 -34 99 -40 -6 -19 -56 -49 -84 -50 -15 0 -59 3 -98 7 l-70 8 40 -21
c22 -11 57 -26 78 -32 43 -13 47 -25 11 -34 -23 -6 -73 2 -153 23 -42 11 -14
-15 50 -47 32 -17 59 -35 59 -40 0 -6 -15 -18 -34 -27 -34 -16 -35 -16 -121
25 -48 23 -90 42 -93 42 -12 0 44 -52 95 -87 37 -25 50 -39 41 -45 -30 -18
-76 -6 -151 40 -22 13 -41 22 -43 19 -2 -2 14 -27 37 -55 22 -29 36 -52 31
-52 -6 0 -43 25 -83 55 -40 30 -75 53 -77 51 -5 -6 44 -96 70 -128 27 -35 20
-42 -29 -29 -33 9 -44 19 -67 61 -15 27 -33 50 -40 50 -7 0 -25 9 -40 21 -22
17 -26 18 -26 4 0 -9 13 -23 29 -33 16 -9 37 -30 45 -47 48 -90 97 -157 162
-221 65 -63 72 -73 60 -89 -11 -16 -18 -11 -72 51 -97 111 -116 131 -105 109
5 -12 43 -60 85 -107 60 -69 73 -88 62 -97 -15 -13 -44 7 -133 93 -69 66 -68
46 1 -31 42 -45 52 -63 43 -72 -6 -6 -15 -11 -20 -11 -21 0 -81 58 -106 102
l-28 49 -7 -82 c-5 -61 -13 -93 -32 -125 -14 -24 -29 -65 -32 -90 -4 -26 -13
-49 -20 -52 -19 -6 -15 56 7 104 10 23 22 64 26 91 7 50 6 50 -42 96 l-48 46
0 76 c0 64 -2 73 -13 58 -7 -10 -15 -28 -19 -41 -7 -31 -24 -23 -37 16 -9 26
-14 30 -23 21 -10 -10 -13 -9 -16 2 -5 17 -31 92 -64 184 -19 51 -25 90 -26
151 -1 63 -4 81 -14 77 -10 -4 -13 8 -13 46 0 28 -4 51 -10 51 -5 0 -10 -6
-10 -14 0 -8 -4 -18 -10 -21 -6 -4 -10 26 -10 83 0 81 2 90 20 95 30 8 25 48
-10 92 -16 21 -30 46 -30 56 0 28 54 24 109 -8 77 -44 171 -114 166 -123 -3
-4 10 -21 29 -38 110 -96 229 -46 369 153 42 59 45 60 341 57 254 -3 279 -2
406 22 140 26 218 49 286 84 21 11 41 18 44 15 3 -3 -19 -27 -48 -54z m-2540
2 c56 -35 73 -60 87 -122 27 -122 -69 -239 -196 -239 -44 0 -114 40 -149 86
-39 52 -48 106 -29 170 24 83 94 133 186 134 44 0 64 -6 101 -29z m192 -56
c-25 -25 -54 -45 -65 -45 -10 0 -19 2 -19 4 0 2 -3 11 -6 20 -4 10 -1 16 8 16
7 0 33 11 58 25 68 37 76 30 24 -20z m-497 13 c9 -7 10 -16 2 -29 -9 -17 -12
-17 -32 -5 -12 7 -34 16 -49 20 -16 4 -28 10 -28 16 0 20 81 19 107 -2z m1081
-39 c22 -7 33 -19 37 -39 3 -16 13 -34 21 -41 22 -18 45 -67 35 -73 -5 -3 -33
6 -62 19 -53 25 -53 26 -16 21 46 -6 47 6 3 50 -22 22 -47 35 -75 40 -33 5
-39 9 -30 20 14 17 45 18 87 3z m-1098 -80 c0 -15 -7 -19 -35 -19 -19 0 -35 5
-35 10 0 6 -1 13 -2 17 -3 9 53 22 65 16 4 -2 7 -13 7 -24z m576 -2 c3 -3 -21
-8 -52 -12 -31 -4 -63 -9 -71 -12 -9 -3 -13 3 -13 19 0 14 2 27 5 30 5 5 124
-17 131 -25z m-563 -79 c7 -26 10 -24 -30 -31 -39 -8 -52 16 -20 38 30 21 44
19 50 -7z m494 -23 c17 -3 36 -12 42 -19 8 -9 -2 -12 -44 -13 -63 -2 -91 14
-81 45 7 20 9 20 29 8 12 -8 36 -17 54 -21z m-474 -102 c-25 -18 -48 -31 -50
-29 -2 2 10 24 28 50 31 43 34 45 51 29 17 -16 16 -18 -29 -50z m393 25 c50
-73 50 -74 18 -54 -78 51 -85 61 -62 84 7 7 13 12 14 12 1 0 14 -19 30 -42z
m-286 -28 c12 -8 12 -11 -2 -27 -8 -10 -18 -34 -22 -54 -4 -21 -12 -42 -19
-47 -9 -8 -12 2 -11 41 1 87 16 111 54 87z m207 -35 c9 -22 17 -58 19 -80 4
-35 3 -37 -6 -15 -6 13 -27 39 -46 56 -37 34 -45 70 -16 77 28 7 33 3 49 -38z
m-108 -7 c0 -18 -4 -53 -7 -78 -9 -54 -18 -38 -28 49 -6 58 -5 61 15 61 17 0
21 -6 20 -32z m2141 -443 c-21 -43 -46 -68 -114 -111 l-29 -18 7 37 c8 44 1
46 -36 10 -43 -41 -36 -4 10 46 26 29 58 50 107 70 39 16 72 24 73 20 2 -5 -6
-29 -18 -54z m-1216 -53 c58 -61 68 -85 28 -63 -30 16 -33 14 -26 -15 6 -24 5
-25 -14 -15 -40 22 -62 61 -62 113 0 27 3 48 8 46 4 -1 34 -31 66 -66z m1475
-31 c-7 -64 -30 -121 -49 -121 -5 0 -6 19 -3 43 l6 42 -27 -24 c-32 -30 -33
-23 -5 32 21 41 66 97 79 97 3 0 3 -31 -1 -69z m-2106 21 c42 -29 87 -92 67
-92 -6 0 -25 14 -42 30 l-30 30 7 -52 c7 -50 7 -52 -10 -38 -10 8 -24 29 -32
47 -14 35 -18 103 -5 103 4 -1 24 -13 45 -28z m457 -28 c20 -17 55 -76 99
-168 38 -78 81 -156 96 -174 15 -17 25 -37 23 -44 -2 -6 -31 21 -63 61 -33 40
-62 66 -64 59 -2 -7 -9 -35 -16 -63 l-11 -50 -17 69 c-10 38 -27 86 -38 107
-10 21 -26 71 -34 111 -8 40 -17 83 -20 96 -7 29 6 28 45 -4z m400 -89 c0 -11
9 -35 19 -54 17 -33 17 -35 -1 -85 -34 -88 -50 -84 -27 8 8 33 7 55 -5 103
-21 79 -21 108 -1 73 8 -14 15 -34 15 -45z m-545 -100 c59 -88 66 -104 61
-135 -3 -19 -1 -53 4 -75 5 -22 7 -42 4 -44 -8 -9 -69 58 -102 111 -34 57 -72
187 -72 247 0 35 0 35 19 16 10 -11 49 -65 86 -120z m1215 -20 c-12 -21 -150
-139 -156 -133 -2 2 5 28 16 58 11 30 24 73 30 95 8 32 21 47 62 77 l53 36 3
-56 c2 -31 -2 -65 -8 -77z m226 48 c-24 -49 -56 -103 -70 -122 -27 -36 -146
-130 -199 -158 l-32 -16 33 37 c38 44 56 77 71 133 8 30 28 59 69 99 58 57
137 113 160 114 7 0 -5 -34 -32 -87z m-647 -32 c28 -40 27 -53 -6 -49 -24 3
-28 8 -31 41 -4 44 9 47 37 8z m281 -22 c-27 -98 -70 -153 -154 -195 -62 -31
-111 -76 -137 -126 -13 -25 -26 -38 -40 -38 -11 0 -19 3 -17 8 62 139 126 220
226 285 37 24 81 59 97 79 17 19 31 34 33 32 2 -1 -2 -22 -8 -45z m-931 -16
c17 -43 71 -256 66 -262 -11 -11 -87 22 -101 45 -26 39 -29 106 -8 179 10 36
22 65 25 65 4 0 12 -12 18 -27z m1061 -91 c-12 -27 -36 -63 -53 -80 -32 -31
-333 -179 -343 -169 -11 10 8 49 42 87 22 24 61 49 111 70 84 36 180 99 228
150 27 29 30 30 33 12 2 -11 -6 -43 -18 -70z m-600 7 c-13 -31 -30 -39 -30
-13 0 33 -19 1 -30 -52 -11 -54 -12 -55 -31 -38 -13 12 -17 24 -12 43 8 34 19
48 68 83 43 32 54 25 35 -23z m-230 -124 c61 -69 107 -125 102 -125 -6 0 -54
9 -107 20 -53 11 -99 20 -101 20 -2 0 -11 15 -20 33 -26 48 -20 198 6 182 5
-3 59 -61 120 -130z m55 74 c11 -16 40 -46 64 -66 43 -36 88 -114 76 -133 -14
-23 -47 -6 -109 60 -63 67 -66 73 -66 120 0 28 3 50 8 50 4 0 16 -14 27 -31z
m305 7 c0 -15 -28 -42 -36 -34 -2 3 0 17 6 32 10 27 30 28 30 2z m658 -18 c3
-30 -1 -40 -21 -53 -36 -23 -216 -81 -324 -105 -91 -20 -133 -21 -82 -2 13 5
65 24 114 42 114 42 168 69 230 119 61 49 79 49 83 -1z m-808 -18 c7 -17 26
-38 41 -47 27 -16 29 -22 29 -76 l0 -58 -32 3 c-32 3 -33 5 -50 73 -18 78 -22
135 -9 135 5 0 14 -14 21 -30z m150 -97 c-35 -94 -60 -107 -60 -32 0 46 11 72
49 112 l26 29 3 -26 c2 -15 -6 -52 -18 -83z"/>
<path d="M2763 12334 c-7 -3 -13 -12 -13 -20 0 -11 4 -12 19 -4 41 21 51 17
164 -70 59 -46 16 -64 -51 -21 -27 17 -53 31 -58 31 -4 0 17 -16 49 -36 67
-42 104 -40 92 4 -4 15 -7 37 -8 50 -3 40 -145 88 -194 66z m147 -44 c0 -5 -2
-10 -4 -10 -3 0 -8 5 -11 10 -3 6 -1 10 4 10 6 0 11 -4 11 -10z"/>
<path d="M2785 12300 c-3 -6 1 -7 9 -4 18 7 21 14 7 14 -6 0 -13 -4 -16 -10z"/>
<path d="M2396 12283 c-4 -4 -22 -6 -41 -5 -33 3 -46 -10 -25 -23 7 -4 5 -14
-5 -28 -25 -35 -17 -43 14 -13 18 17 31 24 35 17 4 -6 16 -11 26 -11 14 0 18
7 18 30 -1 31 -10 45 -22 33z"/>
<path d="M3573 12259 c0 -21 5 -29 18 -29 10 0 21 5 25 11 4 7 17 0 35 -17 31
-30 39 -22 13 14 -8 12 -10 22 -5 22 6 0 11 6 11 14 0 11 -13 15 -48 14 -47 0
-49 -1 -49 -29z"/>
<path d="M2839 12259 c13 -5 36 -18 51 -29 30 -21 55 -27 45 -10 -9 15 -82 50
-102 49 -14 0 -12 -3 6 -10z"/>
<path d="M3010 12240 c0 -17 41 -33 54 -20 8 8 7 10 -6 5 -12 -5 -20 -1 -24 9
-7 17 -24 22 -24 6z"/>
<path d="M3784 12056 c-40 -28 -252 -133 -325 -161 -41 -16 -123 -42 -184 -57
-89 -23 -100 -28 -55 -23 102 9 324 76 504 151 84 35 86 37 86 70 0 39 1 38
-26 20z"/>
<path d="M2180 12027 c0 -33 2 -34 101 -76 180 -76 462 -159 507 -149 9 3 -10
10 -43 17 -146 32 -321 103 -492 201 l-73 41 0 -34z"/>
<path d="M2742 11683 c-7 -3 -22 -23 -33 -45 -16 -31 -23 -38 -30 -27 -5 8 -9
25 -9 39 0 32 -12 16 -35 -45 l-18 -50 -16 45 -15 45 -7 -30 c-4 -16 -7 -47
-8 -67 -1 -34 2 -38 23 -38 13 0 34 -11 47 -25 13 -13 27 -25 31 -25 4 0 19
22 32 49 l25 49 -22 -6 c-21 -5 -21 -4 -5 14 12 14 63 127 55 123 -1 0 -8 -3
-15 -6z"/>
<path d="M3240 11669 c0 -9 12 -38 26 -65 15 -29 22 -50 15 -52 -15 -5 26 -82
43 -82 7 0 19 6 25 14 6 8 25 19 41 26 28 12 30 16 30 68 l0 56 -25 -33 -24
-34 -9 24 c-6 13 -14 35 -20 49 l-10 25 -11 -29 -12 -29 -34 39 c-22 26 -34
33 -35 23z"/>
<path d="M2720 11503 c-29 -55 -52 -64 -85 -33 -14 13 -31 20 -39 17 -24 -9
-19 -25 11 -40 l27 -15 -42 -7 c-26 -4 -42 -12 -42 -21 0 -17 7 -17 65 -2 51
14 69 5 37 -18 -29 -20 -28 -34 2 -34 16 0 27 7 31 20 11 35 35 50 81 50 32 0
44 4 44 15 0 18 -11 19 -45 3 -39 -18 -41 -2 -6 47 33 46 34 65 3 65 -10 0
-27 -20 -42 -47z"/>
<path d="M3217 11538 c-2 -7 5 -26 17 -43 42 -57 42 -58 -3 -50 -33 5 -41 4
-41 -9 0 -10 12 -16 43 -18 37 -3 44 -7 56 -35 8 -18 22 -33 31 -33 26 0 31
12 14 31 -24 27 -10 38 33 27 83 -21 83 -21 83 -4 0 18 -8 20 -62 17 -48 -3
-52 22 -7 38 26 9 29 13 20 25 -11 12 -17 11 -48 -10 -20 -13 -39 -24 -43 -24
-3 0 -17 19 -30 43 -31 55 -53 71 -63 45z"/>
<path d="M2558 11493 c7 -3 16 -2 19 1 4 3 -2 6 -13 5 -11 0 -14 -3 -6 -6z"/>
<path d="M3418 11493 c7 -3 16 -2 19 1 4 3 -2 6 -13 5 -11 0 -14 -3 -6 -6z"/>
<path d="M2560 11445 c0 -8 7 -15 16 -15 14 0 14 3 4 15 -7 8 -14 15 -16 15
-2 0 -4 -7 -4 -15z"/>
<path d="M3386 11447 c-16 -12 -14 -13 18 -9 20 2 36 8 36 13 0 13 -34 11 -54
-4z"/>
<path d="M2830 11441 c0 -5 5 -13 10 -16 6 -3 10 -2 10 4 0 5 -4 13 -10 16 -5
3 -10 2 -10 -4z"/>
<path d="M3157 11443 c-12 -12 -7 -22 8 -17 8 4 15 10 15 15 0 11 -14 12 -23
2z"/>
<path d="M2517 11403 c-4 -3 -7 -11 -7 -17 0 -6 5 -5 12 2 6 6 9 14 7 17 -3 3
-9 2 -12 -2z"/>
<path d="M3465 11400 c3 -5 11 -10 16 -10 6 0 7 5 4 10 -3 6 -11 10 -16 10 -6
0 -7 -4 -4 -10z"/>
<path d="M3346 11341 c-4 -7 -5 -15 -2 -18 9 -9 19 4 14 18 -4 11 -6 11 -12 0z"/>
<path d="M2625 11330 c4 -6 11 -8 16 -5 14 9 11 15 -7 15 -8 0 -12 -5 -9 -10z"/>
<path d="M2935 10815 c-14 -13 -25 -31 -25 -40 0 -12 8 -8 30 14 18 18 46 33
68 36 59 10 60 13 4 14 -43 1 -57 -3 -77 -24z"/>
<path d="M3358 10714 c-16 -8 -28 -19 -28 -24 0 -4 -3 -17 -7 -27 -4 -13 2
-10 24 10 17 16 48 35 69 42 l39 14 -35 0 c-19 0 -47 -7 -62 -15z"/>
<path d="M2665 10689 c-8 -13 -9 -12 38 -38 41 -23 49 -15 15 16 -33 29 -46
35 -53 22z"/>
<path d="M3628 10578 c-15 -12 -51 -23 -85 -27 l-58 -7 48 -8 c26 -5 47 -11
47 -15 0 -22 -54 -53 -111 -65 l-64 -13 41 -6 c22 -4 57 -2 78 4 31 9 41 18
57 55 11 24 26 44 33 44 16 0 49 36 45 48 -2 5 -16 1 -31 -10z"/>
<path d="M3428 10513 c-31 -31 -116 -47 -185 -34 -23 5 -40 5 -38 1 7 -12 90
-30 138 -30 39 0 49 5 81 40 32 36 42 50 33 50 -1 0 -14 -12 -29 -27z"/>
<path d="M3115 10420 c26 -29 68 -50 100 -50 14 0 40 -7 56 -16 44 -22 122
-29 159 -14 17 7 37 25 45 41 21 40 18 46 -6 16 -25 -33 -88 -51 -146 -42 -43
6 -51 13 -33 31 6 6 -9 8 -39 6 -37 -3 -61 3 -102 23 -51 26 -53 26 -34 5z"/>
<path d="M3020 10380 c0 -16 81 -62 117 -67 30 -4 44 0 63 17 22 19 23 20 3
11 -35 -17 -66 -13 -127 17 -31 16 -56 26 -56 22z"/>
<path d="M2980 10321 c0 -18 74 -71 110 -78 41 -7 112 -51 104 -64 -18 -29
-161 7 -150 38 4 9 -5 13 -25 13 -39 0 -65 14 -111 58 -53 51 -48 19 6 -34 32
-32 51 -44 73 -44 18 0 38 -9 49 -21 24 -27 67 -49 94 -49 11 0 38 9 60 20 22
11 50 20 64 20 14 0 38 12 53 26 22 20 23 23 6 15 -32 -16 -98 -13 -141 5 -32
13 -35 17 -21 27 13 10 8 12 -31 13 -35 0 -57 8 -93 33 -26 17 -47 28 -47 22z"/>
<path d="M3397 10286 c-22 -16 -42 -21 -88 -20 -32 0 -59 -1 -59 -2 0 -2 19
-8 42 -15 52 -13 107 0 126 32 18 29 12 31 -21 5z"/>
<path d="M1301 12448 c-30 -34 -45 -56 -34 -49 12 6 28 11 36 11 14 0 204
-162 260 -221 22 -24 25 -33 17 -49 -20 -36 -9 -30 44 27 30 32 52 60 50 62
-2 3 -10 -1 -16 -7 -23 -23 -45 -11 -159 89 -153 135 -162 145 -148 170 20 38
4 28 -50 -33z"/>
<path d="M4773 12339 c2 -32 -4 -38 -141 -136 -79 -57 -150 -103 -157 -103 -8
0 -20 7 -29 15 -37 38 -18 5 66 -112 51 -71 93 -130 94 -131 2 -2 19 1 38 8
42 13 60 34 23 25 -36 -9 -81 18 -117 69 -48 70 -43 82 63 157 l49 33 18 -24
c38 -50 45 -69 33 -100 l-11 -29 54 36 c30 20 54 37 54 39 0 1 -15 0 -33 -3
-31 -5 -37 -1 -65 38 -18 24 -32 46 -32 50 0 15 131 101 146 95 19 -7 74 -95
74 -119 0 -10 -5 -27 -10 -38 -15 -27 2 -24 29 5 l23 25 -78 108 c-98 137 -92
131 -91 92z"/>
<path d="M1143 12266 c-66 -75 -68 -150 -4 -193 44 -30 77 -29 153 3 73 30
108 33 143 10 39 -25 51 -58 35 -96 -18 -44 -53 -64 -111 -63 -27 0 -49 -1
-49 -4 0 -10 73 -33 90 -28 47 15 107 120 93 163 -29 94 -102 116 -221 67 -75
-30 -101 -31 -136 -4 -32 25 -35 72 -7 108 14 18 32 26 67 30 l47 6 -36 17
-36 17 -28 -33z"/>
<path d="M14867 11984 c-32 -43 -44 -66 -35 -69 7 -3 112 -34 233 -70 121 -36
227 -68 235 -71 9 -3 11 -2 5 4 -20 18 -368 264 -379 267 -6 3 -33 -25 -59
-61z"/>
<path d="M4924 11931 c-35 -22 -48 -52 -63 -151 -8 -50 -16 -70 -36 -87 -41
-36 -89 -34 -122 3 -29 32 -30 85 -2 130 11 19 18 34 14 34 -17 0 -65 -43 -65
-58 0 -40 23 -94 54 -127 28 -30 40 -35 77 -35 54 0 102 27 117 66 6 16 15 60
21 98 10 71 28 102 69 117 73 28 130 -82 75 -143 -22 -24 -2 -23 30 2 22 17
24 25 17 50 -30 105 -110 148 -186 101z"/>
<path d="M936 11886 c-28 -30 -71 -117 -91 -186 -8 -25 -8 -25 14 -6 20 18 22
18 68 1 95 -36 287 -125 293 -136 4 -6 6 -21 4 -33 -3 -11 11 11 29 49 34 69
39 96 13 60 -9 -13 -20 -16 -40 -11 -45 11 -136 54 -136 64 0 6 8 20 18 32 13
16 41 26 109 40 108 22 128 31 153 73 26 43 25 55 -2 29 -23 -21 -144 -58
-208 -64 -32 -3 -35 -1 -43 34 -12 52 -57 88 -109 88 -33 0 -46 -6 -72 -34z
m141 -51 c29 -29 34 -40 29 -63 -10 -42 -28 -82 -36 -82 -4 0 -47 16 -95 36
-82 35 -86 38 -80 63 4 14 18 38 33 54 20 21 35 27 70 27 37 0 50 -6 79 -35z"/>
<path d="M12503 11721 c-186 -50 -275 -147 -275 -299 0 -96 28 -158 103 -225
59 -53 100 -76 299 -170 64 -31 136 -73 162 -96 117 -103 96 -231 -49 -303
-61 -30 -76 -33 -153 -32 -126 0 -262 47 -376 129 -21 15 -21 14 5 -96 l26
-112 40 -14 c56 -19 217 -43 296 -43 196 0 400 111 464 253 57 125 40 224 -55
318 -50 50 -83 71 -236 145 -99 48 -198 100 -221 116 -65 44 -93 92 -93 157 0
51 3 57 44 96 55 53 116 70 227 62 83 -5 163 -35 226 -83 l33 -25 0 104 0 104
-52 13 c-29 7 -118 15 -198 16 -120 3 -158 1 -217 -15z"/>
<path d="M13643 11688 c-7 -24 -21 -72 -31 -108 l-19 -65 60 30 c57 28 70 30
194 33 l133 4 0 -484 c0 -299 -4 -497 -10 -520 -6 -20 -24 -48 -41 -62 l-31
-26 183 0 183 0 -38 39 c-22 23 -41 54 -47 77 -4 22 -9 249 -9 507 l0 467 121
0 c131 0 179 -13 201 -54 10 -18 15 -9 39 79 16 55 29 105 29 111 0 8 -12 9
-44 2 -51 -11 -823 -6 -846 5 -12 6 -18 -2 -27 -35z"/>
<path d="M10511 11713 l-323 -3 25 -25 c13 -14 30 -45 36 -70 15 -60 15 -975
0 -1029 -6 -22 -24 -52 -39 -68 l-28 -28 387 0 387 0 37 113 c20 62 37 116 37
120 0 4 -18 -6 -41 -23 -49 -35 -126 -65 -192 -75 -26 -4 -115 -2 -197 5
l-150 13 0 225 0 224 124 -3 c111 -4 128 -7 155 -27 l31 -23 0 93 0 93 -155
-3 -155 -3 0 175 0 175 35 7 c19 3 90 4 157 2 124 -4 141 -8 206 -54 l22 -16
0 106 c0 95 -2 106 -17 104 -10 -2 -164 -4 -342 -5z"/>
<path d="M5943 11699 c11 -6 27 -30 38 -53 17 -38 19 -71 19 -406 0 -201 5
-398 10 -439 23 -175 123 -284 302 -326 161 -38 351 5 456 103 l32 30 0 -59 0
-59 137 0 c127 0 136 1 115 16 -12 8 -30 30 -40 47 -15 29 -17 78 -20 516 -3
523 0 566 45 613 l27 28 -170 0 c-125 -1 -164 -3 -151 -11 11 -6 27 -30 38
-53 17 -38 19 -71 19 -445 0 -389 -1 -406 -21 -447 -26 -54 -77 -100 -149
-132 -45 -21 -71 -26 -140 -26 -73 -1 -93 3 -142 27 -65 32 -110 85 -135 162
-14 42 -18 108 -21 408 -4 391 1 448 45 491 l26 26 -169 0 c-125 -1 -164 -3
-151 -11z"/>
<path d="M7242 11687 c14 -12 35 -38 45 -57 17 -33 18 -69 18 -520 0 -534 0
-536 -61 -590 l-35 -30 162 0 162 0 -36 37 c-21 20 -42 53 -47 74 -6 23 -9
194 -8 442 l3 406 340 -431 c187 -236 362 -452 389 -479 27 -27 77 -63 110
-79 l61 -29 5 582 c5 629 4 615 61 668 l31 29 -157 0 -157 0 31 -25 c60 -51
62 -68 59 -511 l-3 -401 -344 433 c-190 239 -356 450 -369 469 l-25 35 -131 0
-131 0 27 -23z"/>
<path d="M8563 11684 c45 -45 49 -90 45 -614 -3 -439 -5 -488 -20 -517 -10
-17 -28 -39 -40 -47 -21 -15 -9 -16 156 -16 l178 0 -31 26 c-17 14 -35 42 -41
62 -14 52 -13 994 1 1046 6 21 21 49 34 62 l24 24 -166 0 -166 0 26 -26z"/>
<path d="M8975 11683 c38 -40 75 -118 133 -278 167 -459 295 -794 317 -826 29
-45 169 -152 179 -137 1 2 110 282 240 623 131 341 241 626 243 633 4 9 -25
12 -126 12 -130 0 -131 0 -111 -20 57 -57 44 -115 -130 -575 -83 -220 -153
-401 -154 -403 -7 -6 -339 917 -344 956 l-5 42 -134 0 -134 0 26 -27z"/>
<path d="M11103 11699 c11 -6 27 -30 38 -53 17 -38 19 -73 19 -543 0 -550 -1
-560 -58 -596 -26 -16 -20 -16 153 -17 165 0 178 1 157 16 -12 8 -30 30 -40
47 -15 29 -17 79 -20 533 l-3 501 47 7 c120 16 195 2 251 -47 98 -86 96 -228
-5 -319 -53 -48 -88 -65 -172 -87 l-69 -17 88 -135 c99 -151 304 -410 358
-451 47 -36 118 -50 231 -46 l94 3 -64 47 c-115 85 -185 156 -338 348 -84 105
-151 192 -149 194 2 1 33 16 69 33 86 40 152 101 187 171 23 48 28 69 27 132
-1 121 -52 197 -174 254 l-65 31 -290 3 c-216 2 -285 -1 -272 -9z"/>
<path d="M13203 11684 c45 -44 48 -92 45 -615 -3 -438 -5 -487 -20 -516 -10
-17 -28 -39 -40 -47 -21 -15 -9 -16 156 -16 l179 0 -28 22 c-55 43 -55 45 -55
590 0 471 2 506 19 544 11 23 27 47 38 53 13 8 -26 10 -151 11 l-169 0 26 -26z"/>
<path d="M14910 11683 c17 -21 20 -35 15 -62 -7 -35 -359 -920 -398 -1000 -12
-24 -44 -63 -70 -87 l-49 -44 167 0 167 0 -31 26 c-22 19 -31 35 -31 57 0 18
28 110 62 204 l63 173 236 0 237 0 17 -42 c58 -146 125 -331 125 -347 0 -11
-14 -31 -31 -45 l-31 -26 186 0 185 0 -48 45 c-63 59 -76 87 -317 683 l-199
492 -138 0 -138 0 21 -27z m217 -345 c45 -117 85 -221 89 -230 6 -17 -7 -18
-176 -18 -169 0 -182 1 -176 18 30 85 172 442 176 442 3 0 42 -96 87 -212z"/>
<path d="M5159 11645 c-4 -29 -8 -31 -159 -82 -167 -55 -214 -63 -224 -37 -4
9 -9 15 -11 12 -3 -2 6 -36 19 -74 17 -47 25 -61 25 -43 1 22 9 30 40 43 61
24 300 96 320 96 10 0 23 -10 29 -22 19 -40 13 -4 -12 68 -21 60 -24 65 -27
39z"/>
<path d="M785 11518 c-13 -43 -54 -252 -50 -256 2 -3 7 3 11 12 4 10 18 16 37
16 38 0 315 -58 339 -71 9 -5 18 -21 20 -36 2 -16 15 30 32 107 16 74 31 145
33 157 4 17 -3 26 -38 43 l-43 22 28 -33 c26 -30 28 -39 23 -89 -8 -85 -23
-110 -66 -110 -20 1 -61 7 -91 14 -54 13 -55 14 -53 47 3 60 19 89 48 89 38 0
22 16 -24 24 -22 3 -48 8 -58 12 -14 4 -13 1 5 -12 24 -18 28 -48 11 -107 -8
-29 -14 -37 -27 -33 -9 3 -46 10 -80 17 -38 7 -66 18 -69 27 -9 21 15 113 34
134 9 10 24 18 35 18 10 0 18 5 18 10 0 15 -70 12 -75 -2z"/>
<path d="M5248 11394 c-5 -4 -8 -15 -8 -25 0 -30 -30 -38 -205 -56 l-167 -17
-21 24 -20 25 6 -40 c4 -22 7 -53 8 -70 1 -29 1 -29 8 -5 4 14 18 30 32 37 27
13 288 47 297 38 5 -5 -25 -40 -202 -229 l-120 -128 40 6 c65 10 314 36 348
36 24 0 36 -6 44 -22 10 -22 11 -22 11 7 0 17 -4 48 -8 70 -7 32 -9 35 -10 12
-1 -19 -8 -30 -25 -36 -23 -10 -287 -43 -293 -38 -4 5 212 247 258 289 37 34
40 40 37 83 -2 26 -6 43 -10 39z"/>
<path d="M712 11105 c1 -38 3 -59 5 -46 4 20 9 22 33 17 35 -6 300 -118 300
-126 0 -8 -292 -121 -312 -120 -9 0 -19 8 -21 18 -3 9 -5 -14 -5 -53 -1 -48 2
-63 8 -49 9 22 64 48 303 139 94 36 124 51 110 57 -106 42 -318 135 -358 156
-32 17 -52 36 -56 52 -4 15 -7 -3 -7 -45z"/>
<path d="M4870 10874 c0 -17 -3 -47 -6 -65 -4 -28 -3 -31 6 -16 15 24 31 22
101 -13 l60 -31 -7 -62 c-3 -34 -10 -66 -14 -71 -10 -10 -142 -36 -152 -29 -5
2 -8 14 -9 26 -1 22 -11 -23 -22 -98 -6 -40 -6 -40 8 -13 18 32 5 28 244 78
107 22 197 43 200 45 10 11 -22 30 -196 119 -153 79 -180 97 -195 127 l-18 34
0 -31z m338 -219 c-5 -5 -144 -35 -162 -35 -13 0 -13 5 -1 82 l6 38 80 -41
c45 -22 79 -42 77 -44z"/>
<path d="M1141 10688 c0 -15 -5 -29 -10 -33 -15 -9 -301 -55 -342 -55 -27 0
-41 6 -51 22 -13 20 -14 14 -3 -50 13 -73 25 -105 25 -64 0 12 9 26 19 32 26
13 340 62 358 56 7 -3 18 -16 23 -28 8 -21 9 -21 9 -3 0 33 -27 152 -28 123z"/>
<path d="M1025 10405 c-171 -65 -223 -75 -242 -49 -19 26 -16 7 8 -56 25 -66
29 -71 26 -34 -2 23 5 32 38 50 41 24 244 98 250 92 4 -4 -167 -319 -195 -359
-20 -27 -20 -28 -1 -76 l20 -48 0 37 c1 46 11 52 192 114 138 48 173 53 183
28 4 -9 8 -15 11 -13 2 3 -7 34 -20 69 -21 57 -24 61 -24 32 -1 -31 -5 -35
-63 -61 -85 -38 -227 -86 -233 -79 -6 5 187 363 206 383 13 13 11 25 -3 24 -7
-1 -76 -25 -153 -54z"/>
<path d="M4754 10283 c-92 -99 -51 -233 72 -233 32 0 56 10 110 45 90 59 140
60 170 4 13 -25 13 -33 0 -63 -16 -39 -42 -56 -82 -56 -35 0 -21 -15 22 -24
30 -7 33 -5 58 45 14 29 26 64 26 76 0 41 -29 84 -67 100 -46 19 -89 11 -140
-26 -92 -67 -133 -73 -180 -29 -54 50 -8 144 75 155 49 7 48 11 -3 23 -33 7
-40 5 -61 -17z"/>
<path d="M4573 9933 c-16 -27 -38 -61 -48 -78 l-19 -30 22 19 c12 11 30 16 42
13 32 -8 310 -191 310 -204 0 -6 -15 -31 -33 -55 -29 -38 -38 -43 -70 -42
l-37 1 37 -32 c35 -30 38 -31 41 -13 4 21 150 248 183 284 19 20 18 20 -12 55
-19 21 -28 26 -23 14 15 -38 8 -80 -20 -122 -33 -50 -14 -57 -213 73 -86 56
-143 100 -143 109 0 9 5 25 10 36 20 37 3 19 -27 -28z"/>
<path d="M1257 9940 c-21 -11 -76 -47 -124 -80 -88 -61 -110 -69 -131 -48 -27
27 -16 -1 20 -51 34 -49 38 -52 32 -24 -6 28 -1 35 47 74 84 66 168 118 211
130 105 28 197 -103 139 -198 -21 -34 -225 -182 -252 -183 -9 0 -22 7 -29 15
-7 9 -15 14 -17 11 -2 -2 12 -28 33 -58 51 -72 57 -78 49 -48 -7 31 1 39 141
138 139 98 158 140 108 240 -48 96 -139 129 -227 82z"/>
<path d="M13812 9900 c-169 -23 -284 -80 -402 -199 -138 -139 -198 -290 -187
-471 15 -238 146 -431 359 -534 124 -59 180 -71 323 -71 97 0 135 5 195 24
113 35 207 88 285 163 207 196 259 484 134 738 -78 158 -243 289 -420 334 -75
19 -210 26 -287 16z m278 -166 c82 -40 138 -88 189 -165 110 -165 126 -411 39
-583 -34 -66 -125 -153 -194 -186 -282 -135 -592 24 -674 346 -71 279 74 550
327 614 21 5 85 8 143 7 94 -2 112 -6 170 -33z"/>
<path d="M7985 9791 c-15 -53 -29 -101 -32 -107 -2 -6 24 3 59 20 58 29 70 31
195 34 l133 4 0 -477 c0 -519 -3 -549 -52 -590 l-30 -25 183 0 182 0 -36 35
c-20 19 -41 52 -46 73 -7 23 -11 213 -11 510 l0 472 115 0 c123 0 165 -10 200
-49 l19 -22 28 103 c15 57 28 106 28 109 0 4 -17 3 -37 -2 -47 -11 -773 -11
-829 0 l-41 8 -28 -96z"/>
<path d="M12339 9846 c-6 -22 -20 -68 -30 -101 -10 -33 -19 -63 -19 -68 0 -4
17 3 38 16 59 37 111 47 236 47 l117 0 -3 -497 c-3 -451 -5 -501 -20 -530 -10
-17 -28 -39 -40 -47 -21 -15 -8 -16 162 -16 l185 0 -31 25 c-63 50 -64 54 -64
585 l0 480 115 0 c125 0 171 -12 198 -51 19 -26 16 -30 47 86 12 44 23 87 26
97 4 14 0 15 -33 7 -48 -11 -773 -11 -830 0 l-43 8 -11 -41z"/>
<path d="M10451 9870 c-283 -4 -322 -7 -307 -19 10 -8 25 -28 34 -45 15 -28
17 -82 17 -546 0 -471 -1 -518 -17 -547 -10 -17 -28 -39 -40 -48 -21 -14 10
-15 366 -13 l388 3 39 110 c21 61 39 113 39 118 0 4 -18 -6 -41 -23 -50 -36
-130 -67 -198 -76 -28 -4 -116 -1 -196 6 l-145 13 0 224 0 225 123 -4 c108 -3
127 -7 155 -27 l32 -22 0 93 0 93 -155 -3 -155 -3 0 174 c0 206 -16 187 160
187 130 0 176 -10 220 -46 l30 -26 0 106 c0 79 -3 105 -12 104 -7 -2 -159 -5
-337 -8z"/>
<path d="M5957 9848 c12 -13 26 -36 32 -51 7 -19 11 -198 11 -528 0 -541 0
-540 -55 -595 l-26 -26 303 4 c275 4 310 7 376 27 255 76 416 243 457 478 18
98 18 138 0 236 -39 222 -183 375 -423 450 -61 19 -97 21 -382 25 l-315 4 22
-24z m562 -123 c221 -52 335 -212 334 -470 0 -113 -23 -197 -74 -271 -97 -141
-299 -219 -514 -199 l-75 7 0 464 0 464 23 4 c12 3 31 7 42 9 48 11 205 5 264
-8z"/>
<path d="M7164 9839 c14 -17 29 -43 34 -57 9 -36 9 -987 -1 -1034 -4 -20 -21
-50 -36 -67 l-29 -31 170 0 170 0 -31 30 c-17 17 -34 47 -38 68 -10 48 -10
976 0 1024 4 21 19 51 33 68 l26 30 -162 0 -162 0 26 -31z"/>
<path d="M8973 9859 c11 -6 27 -30 38 -53 17 -38 19 -73 19 -536 0 -307 -4
-509 -10 -532 -6 -20 -24 -48 -41 -62 l-31 -26 178 0 c165 0 177 1 156 16 -12
8 -30 30 -40 47 -15 29 -17 79 -20 533 l-3 501 47 7 c117 16 190 2 250 -47 99
-82 98 -227 -4 -319 -53 -48 -88 -65 -173 -87 l-70 -18 90 -137 c127 -191 326
-434 382 -466 39 -22 58 -25 174 -28 83 -3 126 -1 120 6 -5 5 -36 28 -67 51
-104 75 -188 163 -335 349 -80 100 -144 184 -142 186 2 1 34 17 71 34 80 37
160 112 191 180 30 65 30 180 0 238 -41 78 -115 133 -218 160 -64 18 -591 20
-562 3z"/>
<path d="M11035 9837 c18 -18 38 -51 44 -72 16 -57 15 -954 -1 -1007 -6 -22
-28 -53 -50 -73 l-38 -35 166 0 166 0 -32 26 c-65 55 -65 53 -68 444 -2 195
-2 386 0 424 l3 70 348 -441 c191 -243 367 -459 392 -482 36 -33 150 -101 170
-101 3 0 5 261 5 579 0 385 4 589 11 608 5 15 24 43 42 61 l31 32 -153 0 -153
0 35 -39 c20 -22 39 -55 42 -73 3 -18 4 -210 3 -427 l-3 -394 -345 434 c-189
239 -353 448 -365 466 l-20 32 -131 1 -132 0 33 -33z"/>
<path d="M4315 9614 c-47 -24 -83 -64 -101 -111 -24 -62 -8 -107 64 -186 129
-139 142 -158 131 -179 -18 -33 -6 -28 44 18 52 50 60 63 22 38 -23 -15 -26
-15 -54 5 -44 32 -168 169 -185 206 -20 41 -20 68 -1 104 42 83 129 105 201
53 45 -33 194 -189 194 -203 0 -6 -5 -20 -11 -32 -7 -11 16 3 50 33 64 56 74
68 41 50 -33 -18 -55 -4 -132 82 -120 133 -185 163 -263 122z"/>
<path d="M1718 9549 c22 -23 14 -43 -69 -164 -105 -157 -126 -178 -163 -171
-28 6 -28 5 10 -23 38 -27 40 -28 64 -11 50 34 312 172 317 167 8 -9 -45 -313
-62 -358 -4 -11 6 -24 34 -42 l41 -27 -12 25 c-8 18 -8 32 -1 48 15 32 200
264 216 270 6 2 22 0 35 -4 32 -12 27 -5 -20 27 -62 42 -76 50 -60 33 20 -22
14 -42 -30 -105 -62 -86 -140 -186 -143 -182 -2 2 12 84 31 183 19 99 34 183
34 188 0 4 -24 -6 -52 -23 -104 -60 -279 -152 -283 -148 -4 4 146 223 169 246
11 11 18 11 35 3 36 -20 23 -4 -26 31 -62 44 -83 56 -65 37z"/>
<path d="M3990 9356 c-124 -66 -156 -91 -188 -146 -51 -85 -29 -197 52 -268
68 -60 155 -56 290 12 87 43 164 95 123 82 -26 -8 -48 19 -128 163 -82 146
-88 165 -64 191 10 11 16 19 14 19 -2 -1 -47 -25 -99 -53z m32 -53 c21 -24
157 -271 160 -290 5 -25 -70 -72 -129 -82 -90 -14 -165 26 -207 111 -34 68
-36 148 -4 194 48 70 146 106 180 67z"/>
<path d="M2238 9185 c-34 -19 -63 -66 -92 -152 -13 -37 -33 -91 -46 -120 -19
-45 -26 -52 -53 -55 -31 -3 -30 -4 19 -20 27 -9 59 -20 70 -24 16 -6 15 -4 -4
12 -24 19 -24 20 -8 80 24 93 65 195 92 231 68 90 234 36 234 -76 0 -38 -72
-264 -92 -288 -6 -7 -22 -13 -37 -13 -17 0 -1 -9 44 -25 85 -29 94 -30 65 -7
l-22 18 47 146 c55 169 55 202 1 253 -55 52 -160 71 -218 40z"/>
<path d="M3578 9166 c-70 -23 -96 -37 -55 -29 13 3 28 -1 34 -9 18 -21 113
-307 113 -339 0 -16 -8 -33 -17 -39 -15 -9 -14 -10 7 -4 14 4 48 15 75 25 40
14 44 18 23 18 -23 1 -29 8 -46 54 -15 41 -72 214 -97 294 -3 7 5 22 17 33 12
11 20 20 17 19 -2 -1 -34 -11 -71 -23z"/>
<path d="M2586 9100 c27 -11 62 -56 110 -144 30 -55 35 -71 23 -74 -8 -3 -29
-20 -46 -38 -35 -34 -44 -85 -22 -126 18 -34 86 -56 189 -63 67 -4 88 -3 73 4
-21 9 -23 17 -23 78 1 76 25 297 35 313 3 5 16 11 28 11 31 2 -61 17 -103 18
-31 0 -33 -1 -12 -9 22 -9 23 -14 20 -92 l-3 -83 -33 -3 c-27 -3 -35 1 -50 28
-84 155 -119 191 -182 189 -24 0 -24 -1 -4 -9z m242 -227 c23 -6 24 -8 17 -87
-9 -110 -11 -116 -45 -116 -64 0 -110 45 -110 107 1 75 61 117 138 96z"/>
<path d="M3175 9081 c-57 -26 -103 -77 -120 -135 -19 -62 -19 -70 0 -134 30
-99 101 -151 208 -152 66 0 107 15 156 56 89 75 95 235 11 323 -57 59 -176 78
-255 42z m127 -1 c81 -23 144 -139 136 -251 -6 -90 -58 -147 -140 -156 -112
-13 -198 92 -198 241 0 79 23 123 80 153 48 26 68 28 122 13z"/>
<path d="M5980 7640 l0 -392 178 4 179 3 38 29 c69 53 105 183 105 376 -1 196
-34 297 -111 340 -41 24 -54 25 -216 28 l-173 4 0 -392z m293 250 c41 -33 51
-79 50 -256 0 -225 -21 -264 -140 -264 l-53 0 0 270 0 270 59 0 c43 0 65 -5
84 -20z"/>
<path d="M6614 8016 c-3 -7 -4 -35 -2 -62 l3 -49 68 -3 67 -3 0 66 0 65 -65 0
c-47 0 -67 -4 -71 -14z"/>
<path d="M8554 8016 c-3 -7 -4 -35 -2 -62 l3 -49 68 -3 67 -3 0 66 0 65 -65 0
c-47 0 -67 -4 -71 -14z"/>
<path d="M11960 7910 l0 -121 -23 27 c-31 35 -106 44 -157 17 -65 -33 -75 -71
-75 -283 0 -207 7 -243 58 -286 28 -23 37 -26 91 -22 49 4 63 9 83 32 l23 27
0 -25 c0 -25 2 -26 70 -26 l70 0 -2 388 -3 387 -67 3 -68 3 0 -121z m-14 -206
c12 -29 15 -69 12 -181 -3 -138 -4 -146 -27 -164 -29 -24 -33 -24 -62 0 -23
19 -24 23 -24 184 0 180 5 197 57 197 24 0 32 -6 44 -36z"/>
<path d="M12244 8016 c-3 -7 -4 -35 -2 -62 l3 -49 68 -3 67 -3 0 66 0 65 -65
0 c-47 0 -67 -4 -71 -14z"/>
<path d="M8268 7913 c-3 -77 -3 -78 -31 -81 -27 -3 -28 -6 -25 -50 3 -43 5
-47 31 -50 l27 -3 0 -214 c0 -189 2 -215 18 -235 20 -25 88 -41 139 -33 33 6
33 6 33 59 0 50 -2 54 -24 54 -13 0 -27 7 -30 16 -3 9 -6 92 -6 185 l0 169 30
0 c29 0 30 1 30 49 0 47 -2 50 -27 53 -28 3 -28 4 -31 81 l-3 77 -64 0 -64 0
-3 -77z"/>
<path d="M10668 7913 c-3 -77 -3 -78 -31 -81 -27 -3 -28 -6 -25 -50 3 -43 5
-47 31 -50 l27 -3 0 -214 c0 -189 2 -215 18 -235 20 -25 88 -41 139 -33 33 6
33 6 33 59 0 50 -2 54 -24 54 -13 0 -27 7 -30 16 -3 9 -6 92 -6 185 l0 169 30
0 c29 0 30 1 30 49 0 47 -2 50 -27 53 -28 3 -28 4 -31 81 l-3 77 -64 0 -64 0
-3 -77z"/>
<path d="M7090 7843 c-8 -3 -27 -17 -42 -31 -28 -25 -28 -25 -28 -4 0 20 -5
22 -65 22 l-65 0 0 -385 0 -385 65 0 65 0 0 122 c0 110 1 120 15 102 37 -53
159 -59 202 -10 37 44 45 95 41 290 -3 207 -14 247 -74 272 -33 14 -86 17
-114 7z m40 -122 c14 -27 13 -313 -1 -345 -15 -33 -37 -40 -65 -21 -33 21 -39
52 -39 200 0 108 3 136 18 158 22 33 71 38 87 8z"/>
<path d="M7487 7836 c-20 -7 -45 -20 -54 -27 -23 -20 -43 -72 -43 -114 l0 -35
65 0 c59 0 65 2 65 21 0 43 18 59 66 59 38 0 46 -4 56 -25 18 -39 -11 -70
-105 -114 -128 -59 -173 -129 -152 -238 16 -86 58 -123 140 -123 50 0 77 10
113 43 l22 20 0 -26 c0 -26 1 -27 63 -27 l62 0 -3 247 c-2 146 -7 259 -14 275
-18 47 -70 71 -162 75 -52 2 -94 -2 -119 -11z m159 -353 c-3 -38 -6 -75 -6
-83 -1 -24 -24 -48 -52 -55 -64 -16 -95 87 -40 136 36 33 85 68 96 69 5 0 6
-30 2 -67z"/>
<path d="M9040 7839 c-14 -6 -35 -20 -47 -31 l-23 -21 0 21 c0 20 -5 22 -65
22 l-65 0 0 -290 0 -290 65 0 65 0 0 210 c0 250 7 280 64 280 63 0 66 -14 66
-267 l0 -223 70 0 70 0 0 218 c0 249 4 265 63 270 60 5 67 -24 67 -278 l0
-210 65 0 65 0 0 255 c0 285 -3 300 -64 329 -65 31 -147 18 -191 -29 -22 -25
-24 -25 -30 -7 -13 42 -114 65 -175 41z"/>
<path d="M9720 7828 c-87 -44 -106 -107 -98 -327 8 -200 45 -251 193 -259 135
-7 195 37 203 150 l4 58 -65 0 -64 0 -7 -39 c-6 -39 -35 -71 -64 -71 -7 0 -24
11 -37 25 -21 20 -25 34 -25 85 l0 60 137 0 136 0 -6 103 c-6 114 -16 150 -55
190 -49 52 -174 64 -252 25z m154 -110 c9 -12 16 -39 16 -60 l0 -38 -65 0 -65
0 0 38 c0 53 23 82 65 82 24 0 39 -7 49 -22z"/>
<path d="M10335 7835 c-16 -9 -36 -23 -42 -32 -12 -15 -13 -15 -13 5 0 21 -5
22 -70 22 l-70 0 0 -290 0 -290 70 0 70 0 0 213 c0 237 5 260 56 265 56 5 59
-7 62 -255 l3 -223 65 0 64 0 0 255 c0 213 -3 261 -16 286 -27 53 -117 75
-179 44z"/>
<path d="M11030 7828 c-65 -33 -86 -81 -95 -216 -9 -124 5 -259 32 -304 31
-54 75 -69 180 -66 102 3 132 17 168 78 16 28 20 58 23 180 5 176 -7 246 -50
295 -51 59 -175 74 -258 33z m152 -105 c16 -14 18 -34 18 -184 l0 -169 -25
-16 c-25 -16 -55 -14 -85 6 -21 13 -22 338 -1 363 17 22 69 22 93 0z"/>
<path d="M8117 7825 c-10 -7 -30 -28 -43 -46 l-24 -33 0 42 0 42 -65 0 -65 0
0 -290 0 -290 70 0 70 0 0 190 c0 189 0 191 25 215 18 18 35 25 65 25 l40 0 0
80 0 80 -27 0 c-16 0 -36 -7 -46 -15z"/>
<path d="M6612 7543 l3 -288 68 -3 67 -3 0 291 0 290 -70 0 -70 0 2 -287z"/>
<path d="M8552 7543 l3 -288 68 -3 67 -3 0 291 0 290 -70 0 -70 0 2 -287z"/>
<path d="M12242 7543 l3 -288 68 -3 67 -3 0 291 0 290 -70 0 -70 0 2 -287z"/>
<path d="M5980 6610 l0 -390 71 0 70 0 -3 334 c-2 184 0 329 3 323 3 -7 37
-157 75 -334 l69 -323 46 0 45 0 68 313 c38 171 71 320 75 329 3 9 5 -131 3
-313 l-3 -329 70 0 71 0 0 390 0 390 -114 0 -113 0 -42 -193 c-23 -107 -45
-219 -48 -251 -3 -31 -8 -55 -10 -53 -2 2 -10 40 -18 83 -12 72 -68 337 -82
392 -5 21 -9 22 -119 22 l-114 0 0 -390z"/>
<path d="M9704 6986 c-3 -7 -4 -35 -2 -62 l3 -49 68 -3 67 -3 0 66 0 65 -65 0
c-47 0 -67 -4 -71 -14z"/>
<path d="M7298 6883 c-3 -77 -3 -78 -31 -81 -27 -3 -28 -6 -25 -50 3 -43 5
-47 31 -50 l27 -3 0 -214 c0 -189 2 -215 18 -235 20 -25 88 -41 139 -33 33 6
33 6 33 59 0 50 -2 54 -24 54 -13 0 -27 7 -30 16 -3 9 -6 92 -6 185 l0 169 30
0 c29 0 30 1 30 49 0 47 -2 50 -27 53 -28 3 -28 4 -31 81 l-3 77 -64 0 -64 0
-3 -77z"/>
<path d="M9408 6883 c-3 -77 -3 -78 -31 -81 -27 -3 -28 -6 -25 -50 3 -43 5
-47 31 -50 l27 -3 0 -214 c0 -189 2 -215 18 -235 20 -25 88 -41 139 -33 33 6
33 6 33 59 0 50 -2 54 -24 54 -13 0 -27 7 -30 16 -3 9 -6 92 -6 185 l0 169 30
0 c29 0 30 1 30 49 0 47 -2 50 -27 53 -28 3 -28 4 -31 81 l-3 77 -64 0 -64 0
-3 -77z"/>
<path d="M6857 6806 c-20 -7 -45 -20 -54 -27 -23 -20 -43 -72 -43 -114 l0 -35
65 0 c59 0 65 2 65 21 0 43 18 59 66 59 38 0 46 -4 56 -25 18 -39 -11 -70
-105 -114 -128 -59 -173 -129 -152 -238 16 -86 58 -123 140 -123 50 0 77 10
113 43 l22 20 0 -26 c0 -26 1 -27 63 -27 l62 0 -3 247 c-2 146 -7 259 -14 275
-18 47 -70 71 -162 75 -52 2 -94 -2 -119 -11z m159 -353 c-3 -38 -6 -75 -6
-83 -1 -24 -24 -48 -52 -55 -64 -16 -95 87 -40 136 36 33 85 68 96 69 5 0 6
-30 2 -67z"/>
<path d="M7660 6798 c-87 -44 -106 -107 -98 -327 8 -200 45 -251 193 -259 135
-7 195 37 203 150 l4 58 -65 0 -64 0 -7 -39 c-6 -39 -35 -71 -64 -71 -7 0 -24
11 -37 25 -21 20 -25 34 -25 85 l0 60 137 0 136 0 -6 103 c-6 114 -16 150 -55
190 -49 52 -174 64 -252 25z m154 -110 c9 -12 16 -39 16 -60 l0 -38 -65 0 -65
0 0 38 c0 53 23 82 65 82 24 0 39 -7 49 -22z"/>
<path d="M8300 6809 c-14 -6 -35 -20 -47 -31 l-23 -21 0 21 c0 20 -5 22 -65
22 l-65 0 0 -290 0 -290 65 0 65 0 0 210 c0 250 7 280 64 280 63 0 66 -14 66
-267 l0 -223 70 0 70 0 0 218 c0 249 4 265 63 270 60 5 67 -24 67 -278 l0
-210 65 0 65 0 0 255 c0 285 -3 300 -64 329 -65 31 -147 18 -191 -29 -22 -25
-24 -25 -30 -7 -13 42 -114 65 -175 41z"/>
<path d="M8977 6806 c-20 -7 -45 -20 -54 -27 -23 -20 -43 -72 -43 -114 l0 -35
65 0 c59 0 65 2 65 21 0 43 18 59 66 59 38 0 46 -4 56 -25 18 -39 -11 -70
-105 -114 -128 -59 -173 -129 -152 -238 16 -86 58 -123 140 -123 50 0 77 10
113 43 l22 20 0 -26 c0 -26 1 -27 63 -27 l62 0 -3 247 c-2 146 -7 259 -14 275
-18 47 -70 71 -162 75 -52 2 -94 -2 -119 -11z m159 -353 c-3 -38 -6 -75 -6
-83 -1 -24 -24 -48 -52 -55 -64 -16 -95 87 -40 136 36 33 85 68 96 69 5 0 6
-30 2 -67z"/>
<path d="M10063 6809 c-40 -12 -79 -58 -94 -111 -6 -25 -9 -108 -7 -212 3
-193 11 -217 78 -255 53 -29 158 -29 210 0 46 26 66 66 75 152 l7 67 -70 0
-70 0 -4 -56 c-6 -68 -28 -93 -62 -70 -20 13 -21 24 -24 180 -3 179 3 206 43
206 29 0 45 -26 45 -74 l0 -36 71 0 71 0 -7 58 c-4 31 -14 71 -24 87 -34 61
-144 91 -238 64z"/>
<path d="M10517 6806 c-20 -7 -45 -20 -54 -27 -23 -20 -43 -72 -43 -114 l0
-35 65 0 c59 0 65 2 65 21 0 43 18 59 66 59 38 0 46 -4 56 -25 18 -39 -11 -70
-105 -114 -128 -59 -173 -129 -152 -238 16 -86 58 -123 140 -123 50 0 77 10
113 43 l22 20 0 -26 c0 -26 1 -27 63 -27 l62 0 -3 247 c-2 146 -7 259 -14 275
-18 47 -70 71 -162 75 -52 2 -94 -2 -119 -11z m159 -353 c-3 -38 -6 -75 -6
-83 -1 -24 -24 -48 -52 -55 -64 -16 -95 87 -40 136 36 33 85 68 96 69 5 0 6
-30 2 -67z"/>
<path d="M9702 6513 l3 -288 68 -3 67 -3 0 291 0 290 -70 0 -70 0 2 -287z"/>
<path d="M6740 5421 l0 -251 30 0 c23 0 30 4 30 20 0 18 2 18 38 -6 68 -47
154 -20 196 62 26 49 28 154 3 200 -44 84 -142 112 -206 58 l-30 -25 -3 93 -3
93 -27 3 -28 3 0 -250z m223 29 c14 -16 28 -47 32 -68 9 -54 -12 -128 -43
-152 -49 -39 -119 -16 -143 47 -23 60 -2 169 38 192 10 6 34 11 55 11 28 0 42
-7 61 -30z"/>
<path d="M10216 5660 c-50 -10 -76 -41 -76 -91 0 -37 -2 -39 -30 -39 -25 0
-30 -4 -30 -25 0 -21 5 -25 30 -25 l30 0 0 -155 0 -155 25 0 25 0 0 155 0 155
50 0 c47 0 50 2 50 25 0 23 -3 25 -50 25 -52 0 -54 2 -41 50 6 21 14 26 56 30
45 5 50 7 50 30 0 29 -22 34 -89 20z"/>
<path d="M11777 5663 c-4 -3 -7 -116 -7 -250 l0 -243 30 0 30 0 0 110 c0 158
22 200 104 200 25 0 40 -7 55 -26 19 -24 21 -40 21 -155 l0 -129 30 0 30 0 0
130 c0 142 -10 185 -51 214 -36 25 -109 21 -153 -9 l-36 -24 0 94 c0 93 -1 95
-23 95 -13 0 -27 -3 -30 -7z"/>
<path d="M13877 5663 c-4 -3 -7 -21 -7 -40 0 -30 3 -33 30 -33 28 0 30 2 30
40 0 35 -3 40 -23 40 -13 0 -27 -3 -30 -7z"/>
<path d="M5987 5644 c-4 -4 -7 -112 -7 -241 l0 -233 151 0 150 0 -3 28 -3 27
-112 3 -113 3 -2 207 -3 207 -25 3 c-14 2 -29 0 -33 -4z"/>
<path d="M10567 5643 c-4 -3 -7 -111 -7 -240 l0 -233 35 0 35 0 2 197 3 198
56 -150 56 -150 34 0 34 0 56 147 c30 81 58 151 62 154 4 4 7 -83 7 -194 l0
-202 30 0 30 0 -2 238 -3 237 -39 3 c-21 2 -43 -1 -49 -7 -6 -6 -37 -80 -68
-164 l-57 -152 -15 35 c-8 19 -36 92 -62 163 l-48 127 -42 0 c-23 0 -45 -3
-48 -7z"/>
<path d="M8220 5581 c0 -44 -3 -50 -22 -53 -15 -2 -24 -11 -26 -25 -3 -19 1
-23 22 -23 l26 0 0 -117 c0 -65 3 -128 6 -141 9 -32 54 -52 119 -52 52 0 55 1
55 25 0 23 -3 25 -48 25 -26 0 -53 5 -60 12 -8 8 -12 52 -12 130 l0 118 61 0
c57 0 60 1 57 23 -3 19 -10 22 -60 25 l-57 3 -3 47 c-3 43 -5 47 -30 50 -27 3
-28 2 -28 -47z"/>
<path d="M11520 5580 c0 -43 -3 -50 -20 -50 -15 0 -20 -7 -20 -25 0 -18 5 -25
19 -25 18 0 20 -10 23 -131 3 -129 3 -131 31 -155 23 -20 39 -24 88 -24 56 0
59 1 59 25 0 23 -3 25 -48 25 -26 0 -53 5 -60 12 -8 8 -12 52 -12 130 l0 118
61 0 c57 0 60 1 57 23 -3 19 -10 22 -60 25 l-58 3 0 49 c0 49 -1 50 -30 50
-29 0 -30 -1 -30 -50z"/>
<path d="M13620 5580 c0 -43 -3 -50 -20 -50 -15 0 -20 -7 -20 -25 0 -18 5 -25
20 -25 19 0 20 -7 20 -120 0 -66 5 -130 11 -143 15 -33 49 -47 114 -47 52 0
55 1 55 25 0 23 -3 25 -48 25 -26 0 -53 5 -60 12 -8 8 -12 52 -12 130 l0 118
61 0 c57 0 60 1 57 23 -3 24 -4 24 -73 26 l-45 1 0 50 c0 49 -1 50 -30 50 -29
0 -30 -1 -30 -50z"/>
<path d="M6380 5522 c-18 -6 -26 -16 -28 -36 -3 -25 -1 -28 15 -21 10 4 46 10
80 13 56 4 64 2 87 -21 44 -44 35 -54 -51 -62 -91 -8 -127 -24 -148 -65 -43
-83 16 -170 115 -170 37 0 85 23 99 47 9 15 10 14 11 -9 0 -24 4 -28 30 -28
l30 0 0 125 c0 191 -23 228 -143 232 -40 1 -83 -1 -97 -5z m180 -208 c0 -28
-8 -44 -35 -71 -32 -32 -39 -35 -77 -30 -47 6 -68 27 -68 68 0 44 44 65 143
68 36 1 37 0 37 -35z"/>
<path d="M7208 5515 c-71 -39 -101 -179 -56 -264 29 -57 64 -82 122 -88 108
-13 176 59 176 183 0 123 -53 184 -159 184 -31 -1 -68 -7 -83 -15z m133 -45
c35 -19 51 -67 47 -138 -4 -58 -8 -68 -36 -93 -74 -66 -162 -6 -162 110 0 80
37 131 96 131 19 0 44 -5 55 -10z"/>
<path d="M7550 5351 l0 -181 29 0 29 0 4 131 c3 130 3 131 32 156 23 20 38 24
73 21 42 -3 43 -2 43 26 0 28 0 29 -50 24 -34 -4 -59 -13 -75 -28 l-23 -22 -4
24 c-2 17 -10 24 -30 26 l-28 3 0 -180z"/>
<path d="M7848 5518 c-21 -7 -28 -16 -28 -35 0 -20 3 -24 18 -18 9 5 46 10 82
13 71 4 102 -10 114 -54 6 -19 0 -21 -86 -31 -84 -10 -94 -13 -120 -42 -35
-39 -39 -105 -8 -144 43 -55 140 -60 192 -11 l28 28 0 -27 c0 -24 4 -27 31
-27 l31 0 -4 133 c-4 147 -16 185 -68 212 -33 17 -139 19 -182 3z m192 -188
c0 -86 -95 -149 -158 -104 -23 16 -30 66 -13 93 10 15 64 28 129 30 36 1 42
-2 42 -19z"/>
<path d="M8522 5510 c-50 -31 -75 -96 -70 -181 6 -109 59 -164 158 -164 99 0
152 55 158 164 8 130 -48 201 -158 201 -38 0 -65 -6 -88 -20z m140 -41 c50
-27 65 -151 25 -210 -63 -93 -177 -40 -177 83 0 56 20 111 47 127 24 14 79 14
105 0z"/>
<path d="M8870 5351 l0 -181 30 0 30 0 0 126 c0 125 0 126 29 155 24 24 38 29
75 29 42 0 46 2 46 25 0 23 -4 25 -44 25 -33 0 -52 -7 -75 -25 l-30 -26 -3 23
c-2 17 -11 24 -30 26 l-28 3 0 -180z"/>
<path d="M9100 5521 c0 -5 31 -84 70 -177 l69 -168 -19 -42 c-15 -36 -24 -44
-54 -50 -30 -5 -36 -10 -36 -31 0 -24 2 -24 43 -18 57 10 70 18 90 57 32 62
175 423 170 431 -2 4 -15 7 -28 7 -21 0 -29 -15 -77 -135 -29 -74 -56 -135
-59 -135 -3 0 -27 55 -54 123 -26 67 -52 128 -58 135 -11 14 -57 17 -57 3z"/>
<path d="M9800 5523 c-24 -9 -61 -46 -78 -78 -22 -42 -21 -149 2 -198 29 -58
69 -82 143 -82 106 0 158 59 158 180 0 125 -52 186 -156 184 -30 0 -61 -3 -69
-6z m134 -73 c69 -82 23 -240 -69 -240 -30 0 -72 29 -84 59 -14 32 -17 107 -6
143 22 73 111 94 159 38z"/>
<path d="M11160 5522 c-18 -6 -26 -16 -28 -36 -3 -25 -1 -28 15 -20 10 4 46
10 80 12 56 3 65 1 88 -22 43 -43 34 -53 -52 -61 -91 -8 -127 -24 -148 -65
-31 -60 -12 -124 45 -152 62 -31 127 -19 168 30 10 14 12 12 12 -11 0 -23 4
-27 30 -27 l30 0 0 125 c0 191 -23 228 -143 232 -40 1 -83 -1 -97 -5z m177
-214 c-7 -53 -41 -88 -94 -95 -49 -6 -83 20 -83 65 0 50 33 67 139 71 l44 1
-6 -42z"/>
<path d="M12243 5510 c-89 -59 -108 -205 -37 -289 37 -44 101 -65 175 -58 76
8 99 21 99 53 0 21 -4 25 -17 19 -116 -47 -208 -23 -232 63 l-10 32 135 0 134
0 0 40 c0 51 -20 98 -54 130 -38 35 -146 41 -193 10z m148 -43 c20 -15 39 -51
39 -71 0 -14 -16 -16 -100 -16 -95 0 -100 1 -100 21 0 11 13 34 29 50 24 23
38 29 73 29 24 0 50 -6 59 -13z"/>
<path d="M12590 5350 l0 -180 25 0 c25 0 25 0 25 98 0 158 26 212 102 212 60
0 72 -27 76 -182 4 -127 5 -128 28 -128 24 0 24 1 24 98 0 158 26 212 102 212
60 0 72 -27 76 -182 l4 -128 25 0 24 0 -3 149 -3 150 -29 30 c-24 25 -38 31
-73 31 -50 0 -97 -21 -113 -49 -9 -18 -12 -17 -44 15 -28 28 -42 34 -76 34
-40 0 -100 -25 -100 -42 0 -4 -4 -8 -10 -8 -5 0 -10 11 -10 25 0 20 -5 25 -25
25 l-25 0 0 -180z"/>
<path d="M13253 5519 c-26 -8 -33 -15 -33 -35 0 -23 3 -25 23 -19 12 4 49 10
82 12 66 5 97 -10 109 -53 6 -21 2 -22 -73 -29 -119 -10 -161 -44 -161 -129 0
-95 138 -140 212 -70 l28 28 0 -27 c0 -23 4 -27 30 -27 l30 0 -1 123 c0 67 -5
138 -12 157 -18 53 -67 80 -141 79 -34 0 -76 -5 -93 -10z m184 -211 c-7 -53
-41 -88 -94 -95 -49 -6 -83 20 -83 65 0 50 33 67 139 71 l44 1 -6 -42z"/>
<path d="M13877 5523 c-4 -3 -7 -84 -7 -180 l0 -173 30 0 30 0 0 180 0 180
-23 0 c-13 0 -27 -3 -30 -7z"/>
<path d="M14109 5507 c-53 -35 -81 -99 -76 -173 2 -34 12 -75 22 -91 38 -65
129 -96 213 -74 36 10 42 16 42 38 0 22 -3 24 -22 19 -117 -35 -181 -3 -194
98 -8 55 10 110 43 136 28 22 103 27 147 10 24 -9 26 -7 26 15 0 32 -31 45
-109 45 -44 0 -67 -6 -92 -23z"/>
<path d="M14438 5514 c-34 -18 -48 -43 -48 -87 0 -45 37 -81 98 -96 100 -25
126 -47 102 -90 -15 -29 -74 -37 -142 -19 l-58 15 0 -28 c0 -24 6 -30 38 -38
120 -34 244 22 228 103 -11 56 -32 74 -108 97 -40 11 -79 26 -85 31 -16 13
-17 50 -1 66 14 14 116 16 152 2 24 -9 26 -7 26 19 0 21 -6 30 -22 35 -43 11
-153 5 -180 -10z"/>
<path d="M6077 4880 c-50 -9 -77 -38 -84 -88 -5 -35 -9 -41 -32 -44 -18 -2
-27 -10 -29 -25 -3 -20 1 -23 27 -23 l31 0 0 -155 0 -155 30 0 30 0 0 155 0
155 51 0 c47 0 50 2 47 23 -3 19 -10 22 -50 25 -45 3 -48 5 -48 31 0 38 17 51
67 51 41 0 43 1 43 30 0 33 -8 35 -83 20z"/>
<path d="M7530 4851 c0 -39 1 -41 31 -41 29 0 30 2 27 38 -3 32 -7 37 -30 40
-27 3 -28 1 -28 -37z"/>
<path d="M10780 4794 l0 -97 -25 23 c-19 18 -40 25 -83 28 -55 4 -60 2 -94
-30 -111 -104 -50 -338 89 -338 39 0 88 22 102 47 9 15 10 14 11 -9 0 -24 4
-28 30 -28 l30 0 -2 248 -3 247 -27 3 -28 3 0 -97z m-41 -113 c51 -51 52 -172
1 -223 -52 -52 -120 -31 -149 45 -24 62 -4 162 36 186 30 17 91 13 112 -8z"/>
<path d="M12360 4796 l0 -95 -36 24 c-56 38 -122 35 -167 -8 -91 -86 -71 -268
35 -323 51 -27 132 -9 157 33 9 15 10 14 11 -9 0 -24 4 -28 30 -28 l30 0 -2
248 -3 247 -27 3 -28 3 0 -95z m-41 -115 c51 -51 52 -172 1 -223 -52 -52 -120
-31 -149 45 -24 62 -4 162 36 186 30 17 91 13 112 -8z"/>
<path d="M12540 4851 c0 -39 1 -41 31 -41 29 0 30 2 27 38 -3 32 -7 37 -30 40
-27 3 -28 1 -28 -37z"/>
<path d="M13080 4850 c0 -36 3 -40 25 -40 23 0 25 4 25 40 0 36 -2 40 -25 40
-22 0 -25 -4 -25 -40z"/>
<path d="M8110 4635 l0 -245 25 0 25 0 0 245 0 245 -25 0 -25 0 0 -245z"/>
<path d="M7088 4865 c-5 -5 -8 -114 -8 -243 l0 -234 123 4 c136 4 176 17 202
68 30 57 9 136 -45 169 -30 18 -31 19 -11 26 25 8 51 54 51 90 0 39 -27 83
-61 101 -34 17 -238 32 -251 19z m228 -77 c25 -25 22 -77 -5 -100 -18 -13 -40
-18 -92 -18 l-69 0 0 71 0 71 75 -4 c53 -2 80 -8 91 -20z m-20 -178 c37 -15
53 -38 53 -80 0 -64 -42 -90 -146 -90 l-53 0 0 90 0 90 59 0 c33 0 72 -5 87
-10z"/>
<path d="M9810 4851 c-6 -11 -48 -120 -94 -241 l-84 -220 33 0 c32 0 35 3 56
60 l22 60 108 0 107 0 19 -57 c18 -53 22 -58 51 -61 18 -2 32 1 32 5 0 5 -39
112 -87 238 l-88 230 -32 3 c-24 2 -34 -2 -43 -17z m85 -174 c19 -54 35 -100
35 -102 0 -3 -36 -5 -80 -5 -44 0 -80 3 -80 8 0 21 75 211 82 204 4 -4 23 -51
43 -105z"/>
<path d="M11170 4631 l0 -241 30 0 30 0 0 203 1 202 25 -65 c101 -267 93 -250
128 -250 l32 0 53 143 c29 79 57 150 62 158 5 8 9 -66 9 -188 l0 -203 30 0 30
0 -2 238 -3 237 -45 0 -45 0 -59 -157 c-33 -87 -62 -155 -65 -152 -3 3 -31 73
-62 157 l-57 152 -46 3 -46 3 0 -240z"/>
<path d="M6259 4727 c-48 -32 -70 -83 -70 -161 0 -123 67 -194 174 -183 60 5
95 30 125 88 45 86 14 227 -58 264 -45 23 -131 19 -171 -8z m150 -46 c51 -51
52 -172 1 -223 -40 -40 -82 -38 -126 6 -31 31 -34 39 -34 95 0 65 17 113 47
130 30 18 91 13 112 -8z"/>
<path d="M6610 4570 l0 -180 25 0 c25 0 25 1 25 93 1 163 27 217 107 217 39 0
43 2 43 25 0 22 -4 25 -36 25 -35 0 -94 -26 -94 -42 0 -4 -4 -8 -10 -8 -5 0
-10 11 -10 25 0 20 -5 25 -25 25 l-25 0 0 -180z"/>
<path d="M7530 4571 l0 -181 30 0 30 0 -2 178 -3 177 -27 3 -28 3 0 -180z"/>
<path d="M7780 4743 c-24 -9 -61 -46 -78 -78 -9 -18 -16 -56 -16 -95 -1 -115
51 -180 148 -187 123 -10 199 100 167 243 -9 41 -21 61 -52 88 -36 33 -44 36
-97 35 -31 0 -64 -3 -72 -6z m133 -73 c63 -74 34 -215 -48 -236 -35 -9 -83 13
-100 46 -29 56 -23 148 11 189 21 26 33 31 69 31 36 0 48 -5 68 -30z"/>
<path d="M8333 4730 c-47 -31 -68 -82 -68 -165 0 -121 52 -180 158 -180 108 0
162 62 161 185 0 71 -16 110 -59 150 -37 35 -145 41 -192 10z m154 -52 c27
-29 35 -58 35 -118 -1 -89 -51 -141 -121 -125 -80 17 -107 161 -44 235 32 39
98 43 130 8z"/>
<path d="M8725 4728 c-65 -51 -85 -177 -42 -258 48 -92 164 -107 224 -30 11
13 12 11 13 -13 0 -51 -26 -96 -67 -114 -34 -14 -44 -14 -95 -1 l-58 15 0 -27
c0 -33 18 -40 110 -40 76 0 119 21 147 72 15 28 18 61 18 223 l0 190 -27 3
c-24 3 -28 0 -28 -22 l0 -25 -36 24 c-48 33 -120 34 -159 3z m144 -38 c10 -5
26 -28 35 -50 48 -120 -29 -234 -128 -189 -64 30 -76 169 -19 231 18 20 82 24
112 8z"/>
<path d="M9060 4742 c0 -5 23 -65 51 -133 97 -237 91 -211 67 -257 -16 -33
-27 -43 -54 -48 -28 -5 -34 -11 -34 -31 0 -24 2 -24 43 -18 79 13 70 -1 188
293 60 148 75 194 64 198 -35 14 -48 -3 -102 -140 l-56 -138 -56 138 c-52 128
-58 139 -83 142 -16 2 -28 -1 -28 -6z"/>
<path d="M10137 4744 c-4 -4 -7 -85 -7 -181 l0 -173 29 0 29 0 4 131 c3 129 3
131 31 155 34 29 85 32 118 5 23 -18 24 -26 27 -155 l4 -136 29 0 29 0 0 118
c0 134 -11 185 -47 218 -36 33 -107 33 -156 0 l-36 -25 -3 22 c-3 22 -36 35
-51 21z"/>
<path d="M11779 4727 c-110 -73 -103 -263 12 -325 38 -20 53 -23 109 -19 90 7
120 20 120 52 0 14 -1 25 -2 25 -2 0 -21 -7 -43 -15 -86 -31 -171 -10 -199 50
-9 18 -16 38 -16 44 0 7 47 11 133 13 l132 3 -1 46 c-4 96 -58 149 -155 149
-42 0 -65 -6 -90 -23z m159 -49 c11 -13 24 -35 27 -50 l7 -28 -106 0 c-58 0
-106 3 -106 6 0 20 34 73 53 82 40 19 101 14 125 -10z"/>
<path d="M12540 4571 l0 -181 30 0 30 0 -2 178 -3 177 -27 3 -28 3 0 -180z"/>
<path d="M12780 4732 c-88 -44 -117 -183 -57 -274 26 -38 98 -78 142 -78 16 0
47 5 68 11 30 8 37 14 37 36 0 20 -4 24 -17 18 -10 -4 -41 -9 -69 -12 -46 -5
-54 -3 -83 23 -50 45 -60 125 -24 196 7 15 22 32 32 38 25 13 102 13 135 0 24
-9 26 -7 26 19 0 24 -5 30 -31 35 -57 11 -123 6 -159 -12z"/>
<path d="M13080 4570 l0 -180 25 0 25 0 0 180 0 180 -25 0 -25 0 0 -180z"/>
<path d="M13257 4743 c-4 -3 -7 -84 -7 -180 l0 -173 30 0 30 0 0 110 c0 158
22 200 104 200 25 0 40 -7 55 -26 19 -24 21 -40 21 -155 l0 -129 30 0 30 0 0
130 c0 142 -10 185 -51 214 -36 25 -109 21 -153 -9 l-36 -24 0 24 c0 20 -5 25
-23 25 -13 0 -27 -3 -30 -7z"/>
<path d="M13723 4730 c-89 -59 -108 -205 -37 -289 37 -44 101 -65 175 -58 76
8 99 21 99 53 0 21 -4 25 -17 19 -116 -47 -208 -23 -232 63 l-10 32 135 0 134
0 0 40 c0 51 -20 98 -54 130 -38 35 -146 41 -193 10z m148 -43 c20 -15 39 -51
39 -71 0 -14 -16 -16 -100 -16 -95 0 -100 1 -100 21 0 11 13 34 29 50 24 23
38 29 73 29 24 0 50 -6 59 -13z"/>
</g>
</svg>
